<?xml version="1.0" encoding="UTF-8"?>
<svg version="1.1" xmlns="http://www.w3.org/2000/svg" width="1024" height="1024">
<path d="M0 0 C0.65083357 -0.00235223 1.30166715 -0.00470446 1.97222295 -0.00712797 C4.17421026 -0.01383619 6.3761388 -0.0133592 8.57813549 -0.01294994 C10.1643472 -0.01624743 11.75055806 -0.01997275 13.33676785 -0.02409142 C17.71220327 -0.03413254 22.08762496 -0.0378316 26.46307027 -0.04048073 C31.17551883 -0.0443775 35.88795646 -0.05395621 40.60039806 -0.0626936 C51.98863508 -0.08247504 63.37687301 -0.09252601 74.76512292 -0.10142139 C80.12352178 -0.10580124 85.48191965 -0.1111688 90.84031773 -0.11641026 C108.6447714 -0.13342366 126.44922444 -0.14791912 144.253685 -0.155159 C148.87617335 -0.157069 153.49866169 -0.15898931 158.12115002 -0.16094494 C159.27009415 -0.16142868 160.41903828 -0.16191242 161.6027989 -0.16241082 C180.2261541 -0.1707159 198.84944516 -0.19606038 217.47277234 -0.22852562 C236.57798075 -0.26156034 255.68315654 -0.27960448 274.78839368 -0.28280324 C285.52138061 -0.28497159 296.254274 -0.29376768 306.98723316 -0.31926441 C316.12554406 -0.34092241 325.2637387 -0.34904604 334.40207235 -0.33929763 C339.06698538 -0.33473876 343.73165831 -0.33673089 348.39653873 -0.35605907 C352.66455033 -0.37359067 356.93214488 -0.3727751 361.20016029 -0.35716178 C362.74661764 -0.35477041 364.29310311 -0.35918787 365.83951727 -0.37099043 C367.93780371 -0.38601684 370.03459467 -0.37650368 372.13284302 -0.36076355 C373.29939889 -0.36174036 374.46595476 -0.36271717 375.66786081 -0.36372358 C379.42812606 0.24275794 381.07207014 1.47734086 383.75518322 4.13422108 C385.71361225 8.41138524 386.01128398 12.20307891 386.02984142 16.8705492 C386.03750782 17.83764065 386.03750782 17.83764065 386.04532909 18.82426929 C386.05913645 20.93809979 386.05827542 23.05160108 386.05596447 25.16547108 C386.05985565 26.64467965 386.06419119 28.12388711 386.0689497 29.60309315 C386.07639237 32.69635111 386.07613441 35.78949488 386.07085705 38.88275623 C386.06505818 42.83707255 386.08201255 46.79092111 386.10520172 50.7451601 C386.11996554 53.79759906 386.1208073 56.84992595 386.11769199 59.90239429 C386.11820365 61.35997413 386.12341215 62.81756049 386.13350391 64.27510548 C386.14590622 66.31634037 386.13905576 68.35667144 386.12749767 70.39789295 C386.1281271 71.55671986 386.12875652 72.71554676 386.12940502 73.90948963 C385.61195295 78.36846015 384.305501 81.68613274 380.98995686 84.78304672 C378.21971798 86.4579706 376.49795577 86.51278751 373.2720747 86.51949024 C372.15760967 86.52913807 371.04314465 86.5387859 369.89490795 86.54872608 C368.67663815 86.5441489 367.45836834 86.53957172 366.20318127 86.53485584 C364.91661633 86.54183491 363.63005138 86.54881397 362.30449963 86.55600452 C359.5080035 86.57111153 356.71169821 86.57689242 353.91516209 86.57547665 C349.48956114 86.57344156 345.06421623 86.59302043 340.63868237 86.61565113 C332.03886261 86.65663011 323.43906298 86.67522576 314.83916759 86.69182301 C303.90356124 86.71417382 292.96801423 86.74781137 282.03250438 86.79902214 C277.63721118 86.81889708 273.24205171 86.82852071 268.84671533 86.82997429 C266.7677745 86.83206784 264.68890431 86.83863145 262.60998058 86.84714222 C260.08068771 86.85737581 257.55135215 86.86057149 255.02204418 86.85524464 C244.91868682 86.65687816 244.91868682 86.65687816 236.36403942 91.31931019 C234.37913462 94.79216882 234.15867257 97.1805787 234.013484 101.1727953 C233.9706211 102.21324151 233.9706211 102.21324151 233.92689228 103.27470684 C233.8433375 105.56133023 233.79412689 107.84641984 233.75518322 110.13422108 C233.73392502 111.29932083 233.73392502 111.29932083 233.71223736 112.48795795 C233.61759931 118.49779018 233.61479302 124.50660238 233.62237072 130.51703358 C233.62169516 132.43035361 233.62072304 134.34367355 233.61947155 136.25699329 C233.61801002 140.2320282 233.62010126 144.2070404 233.62481213 148.18207264 C233.63054765 153.26815091 233.62719664 158.35417684 233.62123966 163.44025326 C233.61762526 167.37621931 233.61877602 171.31217295 233.62136745 175.24813938 C233.62203227 177.12437286 233.62122393 179.00060749 233.6188879 180.87683964 C233.61634264 183.49147255 233.62022664 186.10602028 233.62578869 188.72064686 C233.62275234 189.87085567 233.62275234 189.87085567 233.61965466 191.04430103 C233.63594787 195.18810119 234.01612298 199.0625883 234.75518322 203.13422108 C234.77059501 205.89622251 234.73554984 208.61946071 234.63408947 211.37640858 C234.61047848 212.14478046 234.58686749 212.91315235 234.56254101 213.70480824 C234.48645346 216.13982668 234.40219602 218.57448196 234.31768322 221.00922108 C234.26440742 222.66805794 234.21166747 224.32691211 234.15948009 225.98578358 C234.0309135 230.03548925 233.89502309 234.08488964 233.75518322 238.13422108 C229.43550803 237.28847415 227.80131336 235.32203169 224.75518322 232.13422108 C222.45569827 230.09342818 220.10628111 228.11503664 217.75518322 226.13422108 C211.76698116 231.12050606 206.340348 236.50322496 200.92119884 242.09515858 C200.28246838 242.74484608 199.64373791 243.39453358 198.98565197 244.06390858 C198.41226086 244.65413807 197.83886974 245.24436756 197.24810314 245.8524828 C195.75518322 247.13422108 195.75518322 247.13422108 193.75518322 247.13422108 C193.54893322 247.67047108 193.34268322 248.20672108 193.13018322 248.75922108 C191.22267896 252.05400116 188.70698938 254.72785736 185.75518322 257.13422108 C185.09518322 257.13422108 184.43518322 257.13422108 183.75518322 257.13422108 C183.75518322 257.79422108 183.75518322 258.45422108 183.75518322 259.13422108 C183.09518322 259.13422108 182.43518322 259.13422108 181.75518322 259.13422108 C181.75518322 259.79422108 181.75518322 260.45422108 181.75518322 261.13422108 C180.27379894 262.59312916 180.27379894 262.59312916 178.23272228 264.283391 C173.97181126 267.90862895 170.0335796 271.75912017 166.11455822 275.74750233 C164.70062599 277.17406375 163.28655965 278.60049226 161.87237072 280.0267992 C159.67611348 282.24798026 157.48151042 284.47075121 155.28936291 286.69598866 C153.1521304 288.86336649 151.00876574 291.02452791 148.86455822 293.18500233 C148.21033886 293.85268131 147.5561195 294.5203603 146.88207531 295.20827198 C145.9602647 296.13515072 145.9602647 296.13515072 145.01983166 297.08075428 C144.48436718 297.62367619 143.9489027 298.16659809 143.39721203 298.72597218 C140.52336153 301.19066511 138.59965712 302.18200052 134.78643322 301.96625233 C131.49445924 301.06265638 129.84034248 300.02001671 127.25518322 297.82172108 C125.96740978 296.74084217 125.96740978 296.74084217 124.65362072 295.63812733 C123.69713634 294.81183826 122.74065197 293.9855492 121.75518322 293.13422108 C120.64369769 292.18442435 119.53169551 291.23523198 118.41924572 290.28656483 C116.04703108 288.25978951 113.68087234 286.22619637 111.31768322 284.18890858 C106.18397625 279.77290735 100.97130277 275.45232737 95.75518322 271.13422108 C95.27307384 271.63953358 94.79096447 272.14484608 94.29424572 272.66547108 C93.66260509 273.31515858 93.03096447 273.96484608 92.38018322 274.63422108 C91.75369884 275.28390858 91.12721447 275.93359608 90.48174572 276.60297108 C88.75518322 278.13422108 88.75518322 278.13422108 86.75518322 278.13422108 C86.50768322 278.75297108 86.26018322 279.37172108 86.00518322 280.00922108 C84.51777953 282.53780734 83.31840313 282.85261112 80.75518322 284.13422108 C80.45483166 284.75297108 80.15448009 285.37172108 79.84502697 286.00922108 C78.62709178 288.38397644 77.3970916 289.48858176 75.31768322 291.13422108 C72.69321316 293.27953478 70.75959998 295.39133499 68.75518322 298.13422108 C68.09518322 298.13422108 67.43518322 298.13422108 66.75518322 298.13422108 C66.42518322 299.12422108 66.09518322 300.11422108 65.75518322 301.13422108 C65.09518322 301.13422108 64.43518322 301.13422108 63.75518322 301.13422108 C63.44580822 301.96953358 63.44580822 301.96953358 63.13018322 302.82172108 C61.58647661 305.41795493 59.69292846 306.97556044 57.34502697 308.84125233 C53.9591266 311.59489612 51.17165005 314.50952084 48.75518322 318.13422108 C48.09518322 318.13422108 47.43518322 318.13422108 46.75518322 318.13422108 C46.75518322 318.79422108 46.75518322 319.45422108 46.75518322 320.13422108 C45.35235119 321.51361561 45.35235119 321.51361561 43.37237072 323.14203358 C38.25726931 327.4906588 33.58809329 332.22820681 28.88018322 337.00922108 C27.19759472 338.71722632 25.51281189 340.42307358 23.82549572 342.12640858 C22.72358898 343.24571766 22.72358898 343.24571766 21.5994215 344.38763905 C19.0001178 346.84930422 18.03631294 347.11339665 14.38018322 347.38422108 C10.59597979 347.12324153 9.25577222 346.92333958 6.75518322 344.13422108 C5.41602656 340.83096799 5.64406384 339.43671272 6.88018322 336.07172108 C8.88266587 332.93449826 10.77878418 331.33108703 13.75518322 329.13422108 C16.57522643 326.45879546 19.15057475 323.68277478 21.63018322 320.69672108 C24.2853133 317.52992531 27.19670232 314.95423304 30.43487072 312.39593983 C30.87057384 311.97957264 31.30627697 311.56320545 31.75518322 311.13422108 C31.75518322 310.47422108 31.75518322 309.81422108 31.75518322 309.13422108 C32.49768322 308.70109608 33.24018322 308.26797108 34.00518322 307.82172108 C37.08297666 305.9330751 38.52401023 303.95599869 40.75518322 301.13422108 C42.58667945 299.52472439 44.45723012 297.98490222 46.36455822 296.46625233 C47.05291759 295.80689686 47.05291759 295.80689686 47.75518322 295.13422108 C47.75518322 294.47422108 47.75518322 293.81422108 47.75518322 293.13422108 C49.41335244 292.12019316 51.08181077 291.12295886 52.75518322 290.13422108 C54.3461533 288.72135093 55.89295066 287.25766321 57.39971447 285.75531483 C58.24082775 284.91677967 59.08194103 284.07824451 59.94854259 283.2142992 C60.812859 282.34224842 61.67717541 281.47019764 62.56768322 280.57172108 C63.45133556 279.69580311 64.33498791 278.81988514 65.24541759 277.9174242 C66.08008556 277.08017811 66.91475353 276.24293201 67.77471447 275.38031483 C68.53888683 274.6138866 69.3030592 273.84745838 70.0903883 273.05780506 C71.97332041 271.30616774 71.97332041 271.30616774 71.75518322 269.13422108 C72.46545666 268.71140858 73.17573009 268.28859608 73.90752697 267.85297108 C77.20340819 265.86368748 79.67982805 263.39281026 82.31768322 260.63422108 C90.26092723 252.39597351 90.26092723 252.39597351 94.58721447 251.63812733 C98.80300314 252.29830632 101.28823899 254.38376671 104.44268322 257.07172108 C105.05353771 257.57244129 105.6643922 258.07316151 106.29375744 258.58905506 C107.53744872 259.61064702 108.77611921 260.63838334 110.00957775 261.67230701 C112.44259699 263.70991809 114.91401299 265.69944533 117.38018322 267.69672108 C123.19554296 272.4807428 128.97609154 277.30650964 134.75518322 282.13422108 C135.56761577 271.08334065 135.90887837 260.10161072 135.91631603 249.02289295 C135.92096004 247.37836061 135.92598674 245.73382932 135.9313612 244.0892992 C135.9443177 239.67662747 135.95089446 235.2639708 135.95537186 230.85128307 C135.95832433 228.08789213 135.96243252 225.32450514 135.96687603 222.56111622 C135.9804942 213.89430594 135.99019372 205.2275049 135.99407792 196.56068468 C135.99857308 186.59045645 136.01621204 176.62036432 136.04507852 166.65017748 C136.06670178 158.91136221 136.07678221 151.17258529 136.07811904 143.43374014 C136.07916473 138.82375055 136.08502475 134.21388992 136.10293865 129.60393238 C136.11943507 125.27649669 136.1215673 120.9492869 136.11279964 116.62183094 C136.11203066 115.03841514 136.11635367 113.45498706 136.1262579 111.87160206 C136.50794939 100.52797246 136.50794939 100.52797246 132.75518322 90.13422108 C126.17997246 86.28656235 119.26239145 86.717287 111.8091383 86.76532459 C109.84349379 86.75954331 107.87784929 86.75375932 105.9122051 86.74787319 C103.81352856 86.74440292 101.71497734 86.74822546 99.61630726 86.75409603 C95.23295329 86.76573304 90.84986117 86.75347316 86.46653271 86.7374773 C75.58516515 86.70138186 64.70380497 86.69505587 53.82238293 86.69757557 C45.35236768 86.69928708 36.88256795 86.6921744 28.41261309 86.65759701 C24.0567572 86.64081632 19.70142772 86.64258448 15.34557402 86.65841973 C12.00131398 86.66557864 8.65727904 86.64698353 5.31304455 86.63251209 C4.1092918 86.64225559 2.90553905 86.65199909 1.66530895 86.66203785 C-6.47165223 86.59157514 -6.47165223 86.59157514 -10.46718311 84.22807789 C-14.73771332 79.19786332 -13.92581241 72.52847356 -14.36981678 66.19672108 C-14.46907459 64.89541248 -14.56833241 63.59410389 -14.67059803 62.2533617 C-14.75954334 61.00877186 -14.84848866 59.76418201 -14.94012928 58.48187733 C-15.02279041 57.33727039 -15.10545155 56.19266346 -15.19061756 55.01337147 C-15.24481678 52.13422108 -15.24481678 52.13422108 -14.24481678 49.13422108 C-14.40981678 48.10297108 -14.57481678 47.07172108 -14.74481678 46.00922108 C-15.14669308 42.89467974 -15.20129785 41.07429704 -14.77216053 38.09125233 C-13.99756324 31.74396603 -14.23015826 25.42353098 -14.37176991 19.0424242 C-14.44410079 12.88578931 -14.46286739 7.6988421 -10.24481678 2.82172108 C-6.75420768 -0.12348035 -4.51527366 0.00692574 0 0 Z " fill="#214331" transform="translate(320.24481678009033,218.86577892303467)"/>
<path d="M0 0 C2.02920662 -0.00082982 4.05841315 -0.00329348 6.08761597 -0.00730896 C10.32570803 -0.01015732 14.56326878 0.00444281 18.80126953 0.03198242 C24.21942222 0.0661069 29.63662836 0.06002311 35.05482674 0.04131985 C39.23973411 0.03072774 43.42442306 0.03970708 47.60931015 0.05470467 C49.60669175 0.05986775 51.60409633 0.05942756 53.60147476 0.05315971 C56.39643316 0.04767899 59.19005718 0.06817212 61.98486328 0.09545898 C62.80065857 0.08893311 63.61645386 0.08240723 64.45697021 0.07568359 C73.01892927 0.21705332 78.6474841 3.59108623 84.64599609 9.609375 C85.13163025 10.09121246 85.6172644 10.57304993 86.11761475 11.06948853 C87.69768763 12.64223655 89.26303332 14.22876102 90.828125 15.81640625 C91.93218037 16.92284987 93.03698054 18.02855073 94.14248657 19.13354492 C96.44647114 21.44064312 98.74362501 23.75425791 101.03564453 26.07324219 C103.97089195 29.04258715 106.91925369 31.99847564 109.87235069 34.95005798 C112.14975911 37.22801039 114.42191733 39.51113851 116.69234085 41.79605103 C117.77799727 42.88805969 118.86485853 43.9788719 119.95295334 45.06845093 C121.47031823 46.59015873 122.98091454 48.11827417 124.48974609 49.6484375 C125.34941986 50.51573486 126.20909363 51.38303223 127.09481812 52.27661133 C130.83171435 56.49283806 131.43068936 59.41327896 131.44711304 65.04092407 C131.45164415 65.68248739 131.45617526 66.3240507 131.46084368 66.98505533 C131.47349425 69.13285119 131.4718669 71.28039368 131.47021484 73.42822266 C131.47619993 74.96922125 131.48300543 76.51021685 131.49057007 78.0512085 C131.5082451 82.237476 131.51292624 86.42366174 131.51420164 90.60996294 C131.51562361 93.22791296 131.51989421 95.84584222 131.52519608 98.46378708 C131.5437054 107.60461495 131.55186607 116.74538448 131.55029297 125.88623047 C131.54909319 134.39314678 131.570161 142.8998087 131.6017803 151.40666068 C131.62798618 158.71895111 131.63865837 166.03115873 131.63738215 173.34349573 C131.63687353 177.70672504 131.64250029 182.06972857 131.66373825 186.43291092 C131.68319198 190.54194 131.68319678 194.65052974 131.66870499 198.75957489 C131.66662419 200.26151297 131.67127405 201.76347905 131.6834259 203.26536942 C131.77070699 214.80746844 130.39338062 224.1783082 122.24609375 232.87109375 C116.19167675 238.02135396 109.06261084 240.74254324 101.17233276 240.76934814 C100.16317307 240.77505829 99.15401337 240.78076843 98.11427307 240.78665161 C97.01292526 240.78776947 95.91157745 240.78888733 94.77685547 240.79003906 C93.61215225 240.79500397 92.44744904 240.79996887 91.24745178 240.80508423 C87.3889202 240.81970498 83.53042975 240.82650855 79.671875 240.83203125 C77.66693304 240.83632968 75.66199109 240.84062864 73.6570493 240.84500575 C68.06787219 240.85681326 62.47870502 240.86435249 56.88951671 240.86780095 C49.68060951 240.87227403 42.47189265 240.88978849 35.26304328 240.91880155 C29.67898454 240.94048846 24.09497905 240.95050903 18.51087868 240.95184207 C15.18161715 240.95288556 11.85267629 240.96016195 8.52343369 240.97666168 C4.80177307 240.99378617 1.08057115 240.99182569 -2.64111328 240.98535156 C-3.7303157 240.99456635 -4.81951813 241.00378113 -5.94172668 241.01327515 C-16.10595547 240.9581077 -25.11899123 239.14591756 -32.6328125 231.875 C-38.97651573 225.12159927 -41.28494446 218.44379894 -41.20126343 209.32447815 C-41.2059434 208.52770013 -41.21062337 207.73092212 -41.21544516 206.90999931 C-41.22733673 204.26087119 -41.21796099 201.61226601 -41.20849609 198.96313477 C-41.21256443 197.05539652 -41.21790777 195.14766064 -41.22442627 193.2399292 C-41.23807543 188.07254904 -41.23281085 182.90534904 -41.22328901 177.73796582 C-41.2156789 172.32228956 -41.22274188 166.90662843 -41.22744751 161.49095154 C-41.23290158 152.39620198 -41.22572305 143.30152556 -41.21142578 134.20678711 C-41.19510488 123.70373117 -41.20038515 113.20085001 -41.216905 102.69779831 C-41.23053562 93.66910579 -41.23243166 84.64046577 -41.22458899 75.61176628 C-41.21992052 70.22420161 -41.21926481 64.83671897 -41.22919846 59.44915962 C-41.23788858 54.38229349 -41.2318088 49.3156518 -41.21451569 44.24880981 C-41.21056156 42.39330861 -41.21166641 40.53778839 -41.21830368 38.68229485 C-41.28946531 16.76111827 -41.28946531 16.76111827 -34.7578125 9.37890625 C-24.57379718 -0.79000938 -13.54811785 -0.1003962 0 0 Z M-19.43464375 22.72775841 C-21.57340805 25.66215895 -21.23319504 28.72600555 -21.20126343 32.22058105 C-21.2059434 33.00098613 -21.21062337 33.78139121 -21.21544516 34.58544493 C-21.22744181 37.20882723 -21.21791989 39.83169165 -21.20849609 42.45507812 C-21.21255973 44.33240566 -21.21790043 46.2097308 -21.22442627 48.08705139 C-21.23813046 53.19234364 -21.23278843 58.2974545 -21.22328901 63.40275002 C-21.21570847 68.73851648 -21.22273355 74.07426712 -21.22744751 79.41003418 C-21.23290975 88.3715291 -21.22570116 97.33294992 -21.21142578 106.29443359 C-21.19509839 116.66401657 -21.20038657 127.03342262 -21.216905 137.40300131 C-21.23050652 146.29646876 -21.23244606 155.18988285 -21.22458899 164.08335733 C-21.21990513 169.3992646 -21.21930717 174.71508863 -21.22919846 180.0309906 C-21.23784645 185.02800746 -21.23188596 190.02479557 -21.21451569 195.02178764 C-21.21053923 196.85884152 -21.2117046 198.69591456 -21.21830368 200.53296089 C-21.22646367 203.03464682 -21.21626538 205.53559305 -21.20126343 208.03723145 C-21.21130168 209.13581081 -21.21130168 209.13581081 -21.22154272 210.25658369 C-21.19145867 214.11641131 -21.19145867 214.11641131 -19.48400307 217.47838593 C-15.94580264 219.92521804 -14.17693509 220.87965768 -9.89283752 220.88960266 C-8.87638153 220.89668747 -7.85992554 220.90377228 -6.81266785 220.91107178 C-5.14111382 220.90735565 -5.14111382 220.90735565 -3.43579102 220.90356445 C-2.26159607 220.90867538 -1.08740112 220.91378632 0.12237549 220.91905212 C3.3434861 220.93058146 6.56443738 220.93301993 9.78556323 220.93048882 C12.47447152 220.92941962 15.16335602 220.9343012 17.85225922 220.93909425 C24.19587642 220.95019225 30.53943442 220.95062525 36.88305664 220.94458008 C43.42748047 220.93853944 49.97168935 220.95085273 56.51607651 220.97215015 C62.1348506 220.98976304 67.75355626 220.995768 73.37235695 220.9925124 C76.7282162 220.99069884 80.08392213 220.9933428 83.43975639 221.00722694 C87.18193116 221.0195267 90.92360508 221.01283806 94.66577148 221.0012207 C95.77811661 221.00886444 96.89046173 221.01650818 98.03651428 221.02438354 C99.0557901 221.01736923 100.07506592 221.01035492 101.12522888 221.00312805 C102.00994086 221.00329579 102.89465284 221.00346354 103.80617428 221.00363636 C106.70836107 220.5454393 108.06480952 219.64390647 110.1796875 217.62890625 C111.23883296 214.45146987 111.30288793 212.21498838 111.29994202 208.87727356 C111.30131668 207.67833969 111.30269135 206.47940582 111.30410767 205.24414062 C111.30051239 203.92712158 111.29691711 202.61010254 111.29321289 201.25317383 C111.29293085 199.85373435 111.29308909 198.45429473 111.2936554 197.05485535 C111.29394271 193.25348841 111.28805665 189.45215293 111.28108144 185.65079331 C111.2748369 181.67895558 111.27424323 177.70711715 111.27305603 173.73527527 C111.26994597 166.21301676 111.26173694 158.69077275 111.25170654 151.16852063 C111.24053533 142.60513352 111.23503241 134.04174572 111.23001111 125.47835314 C111.21955407 107.86186262 111.2019609 90.2453856 111.1796875 72.62890625 C107.36364268 71.58295687 103.71709781 71.46008233 99.78125 71.41796875 C98.31769715 71.38990027 96.85415562 71.36123581 95.390625 71.33203125 C93.09765951 71.29082263 90.80490564 71.25390876 88.51171875 71.22753906 C86.28862596 71.19979823 84.06647503 71.15393529 81.84375 71.10546875 C80.82627182 71.10058945 80.82627182 71.10058945 79.78823853 71.09561157 C75.21053223 70.97845727 71.97681178 70.21576989 68.1796875 67.62890625 C64.6240468 62.65788599 64.71032276 57.73957205 64.66796875 51.85546875 C64.65001755 50.93172455 64.63206635 50.00798035 64.61357117 49.0562439 C64.55963326 46.12217699 64.5256255 43.18827124 64.4921875 40.25390625 C64.45899984 38.25779016 64.42450885 36.26169528 64.38867188 34.265625 C64.30391624 29.38683532 64.23702633 24.50809206 64.1796875 19.62890625 C54.22650789 19.58254908 44.273354 19.54701982 34.32008839 19.52528191 C29.6982981 19.51484838 25.07658173 19.50069699 20.45483398 19.47802734 C15.99391135 19.45628368 11.53305978 19.44433438 7.07208824 19.43915176 C5.3708554 19.43545875 3.66962641 19.42824723 1.96842384 19.41744614 C-0.41591141 19.40291096 -2.79995368 19.40092915 -5.18432617 19.40185547 C-5.88635666 19.39466492 -6.58838715 19.38747437 -7.31169128 19.38006592 C-12.04875819 19.3999567 -15.50578066 20.05343757 -19.43464375 22.72775841 Z " fill="#B0C49A" transform="translate(613.8203125,349.37109375)"/>
<path d="M0 0 C0.71873795 -0.00524185 1.43747589 -0.0104837 2.17799377 -0.0158844 C3.69685577 -0.02230231 5.21576748 -0.0209705 6.73461914 -0.01245117 C9.05510311 -0.00394767 11.37311911 -0.03268925 13.69335938 -0.06445312 C15.17057218 -0.06606549 16.64778933 -0.06548694 18.125 -0.0625 C18.81677841 -0.07373398 19.50855682 -0.08496796 20.22129822 -0.09654236 C23.4052128 -0.05064077 25.36027488 0.25571438 28.03540039 2.02709961 C32.11422438 8.18689248 30.78354838 17.36609136 30.79003906 24.44970703 C30.79748642 26.3996608 30.79748642 26.3996608 30.80508423 28.38900757 C30.81813473 31.93840188 30.8246376 35.48777735 30.82909489 39.03719187 C30.83203483 41.25660737 30.83614113 43.47601782 30.84059906 45.69543076 C30.85424862 52.64566145 30.86393021 59.59588047 30.86780095 66.54612362 C30.8722891 74.55930925 30.88988257 82.57232493 30.91880155 90.58545887 C30.94041276 96.789452 30.95050477 102.99339726 30.95184207 109.19742763 C30.95288961 112.89923398 30.95878764 116.60088002 30.97666168 120.30264664 C30.99619415 124.42729302 30.99185571 128.55158205 30.98535156 132.67626953 C30.99917374 134.51230743 30.99917374 134.51230743 31.01327515 136.38543701 C31.00770599 137.50969086 31.00213684 138.6339447 30.99639893 139.79226685 C30.99786549 140.76672823 30.99933205 141.74118961 31.00084305 142.74518013 C30.55682879 145.95458021 29.51242088 147.81817083 27.62890625 150.43359375 C22.08450258 154.5716121 15.67391219 153.84119314 9.06640625 153.74609375 C7.94298828 153.74931641 6.81957031 153.75253906 5.66210938 153.75585938 C-5.26131893 153.68446442 -5.26131893 153.68446442 -9.98959351 150.26211548 C-12.03735392 147.55174722 -11.77160415 145.37825452 -11.8034668 142.00854492 C-11.81364995 141.35546828 -11.8238331 140.70239164 -11.83432484 140.0295248 C-11.8646896 137.84511901 -11.87377149 135.66115287 -11.8828125 133.4765625 C-11.89986201 131.92246131 -11.91815929 130.36837338 -11.93762207 128.81430054 C-11.98614263 124.62062571 -12.01579945 120.42701348 -12.04125595 116.23314285 C-12.0643404 112.75532526 -12.09740775 109.27763303 -12.13055897 105.7998991 C-12.223136 96.05831292 -12.28789895 86.31669735 -12.34179688 76.5748291 C-12.36911803 71.65369207 -12.40292808 66.73261389 -12.4375 61.81152344 C-12.49213947 53.87568468 -12.5274572 45.9398962 -12.55142593 38.00391006 C-12.55857917 36.0001774 -12.56887534 33.99648198 -12.57992554 31.99276733 C-12.59752201 28.28677648 -12.60169122 24.58102713 -12.6015625 20.875 C-12.61225769 19.25372696 -12.61225769 19.25372696 -12.62316895 17.59970093 C-12.60521807 11.68722265 -12.44849975 6.73069713 -9.20678711 1.58569336 C-6.3148011 -0.22934614 -3.3106594 -0.01400816 0 0 Z " fill="#80A36A" transform="translate(523.37109375,491.56640625)"/>
<path d="M0 0 C0.33 0 0.66 0 1 0 C1.98035441 4.79944549 2.05812873 9.3722363 1.87890625 14.2421875 C1.85529526 15.01055939 1.83168427 15.77893127 1.80735779 16.57058716 C1.73127024 19.00560561 1.6470128 21.44026088 1.5625 23.875 C1.5092242 25.53383687 1.45648425 27.19269103 1.40429688 28.8515625 C1.27573028 32.90126817 1.13983987 36.95066857 1 41 C-3.31967519 40.15425307 -4.95386986 38.18781061 -8 35 C-10.29948495 32.9592071 -12.64890211 30.98081556 -15 29 C-20.98820206 33.98628499 -26.41483522 39.36900388 -31.83398438 44.9609375 C-32.47271484 45.610625 -33.11144531 46.2603125 -33.76953125 46.9296875 C-34.62961792 47.81503174 -34.62961792 47.81503174 -35.50708008 48.71826172 C-37 50 -37 50 -39 50 C-39.20625 50.53625 -39.4125 51.0725 -39.625 51.625 C-41.53250426 54.91978009 -44.04819384 57.59363628 -47 60 C-47.66 60 -48.32 60 -49 60 C-49 60.66 -49 61.32 -49 62 C-49.66 62 -50.32 62 -51 62 C-51 62.66 -51 63.32 -51 64 C-52.48138428 65.45890808 -52.48138428 65.45890808 -54.52246094 67.14916992 C-58.78337196 70.77440788 -62.72160362 74.62489909 -66.640625 78.61328125 C-68.05455723 80.03984267 -69.46862357 81.46627118 -70.8828125 82.89257812 C-73.07906974 85.11375919 -75.2736728 87.33653013 -77.46582031 89.56176758 C-79.60305282 91.72914541 -81.74641748 93.89030683 -83.890625 96.05078125 C-84.87195404 97.05229973 -84.87195404 97.05229973 -85.87310791 98.0740509 C-86.48764832 98.69197006 -87.10218872 99.30988922 -87.73535156 99.9465332 C-88.27081604 100.48945511 -88.80628052 101.03237701 -89.35797119 101.5917511 C-92.23182169 104.05644403 -94.1555261 105.04777944 -97.96875 104.83203125 C-101.26072398 103.9284353 -102.91484074 102.88579564 -105.5 100.6875 C-106.35851562 99.96691406 -107.21703125 99.24632812 -108.1015625 98.50390625 C-109.05804688 97.67761719 -110.01453125 96.85132813 -111 96 C-112.11148553 95.05020328 -113.22348771 94.10101091 -114.3359375 93.15234375 C-116.70815214 91.12556843 -119.07431088 89.0919753 -121.4375 87.0546875 C-126.57120697 82.63868628 -131.78388045 78.31810629 -137 74 C-137.48210937 74.5053125 -137.96421875 75.010625 -138.4609375 75.53125 C-139.40839844 76.50578125 -139.40839844 76.50578125 -140.375 77.5 C-141.00148438 78.1496875 -141.62796875 78.799375 -142.2734375 79.46875 C-144 81 -144 81 -146 81 C-146.2475 81.61875 -146.495 82.2375 -146.75 82.875 C-148.23740369 85.40358627 -149.43678009 85.71839004 -152 87 C-152.30035156 87.61875 -152.60070312 88.2375 -152.91015625 88.875 C-154.12809144 91.24975536 -155.35809162 92.35436068 -157.4375 94 C-160.06197006 96.1453137 -161.99558324 98.25711391 -164 101 C-164.66 101 -165.32 101 -166 101 C-166.495 102.485 -166.495 102.485 -167 104 C-167.66 104 -168.32 104 -169 104 C-169.20625 104.556875 -169.4125 105.11375 -169.625 105.6875 C-171.16870661 108.28373385 -173.06225476 109.84133936 -175.41015625 111.70703125 C-178.79605662 114.46067504 -181.58353317 117.37529976 -184 121 C-184.66 121 -185.32 121 -186 121 C-186 121.66 -186 122.32 -186 123 C-187.40283203 124.37939453 -187.40283203 124.37939453 -189.3828125 126.0078125 C-194.49791391 130.35643772 -199.16708993 135.09398574 -203.875 139.875 C-205.5575885 141.58300524 -207.24237133 143.28885251 -208.9296875 144.9921875 C-209.66429199 145.73839355 -210.39889648 146.48459961 -211.15576172 147.25341797 C-213.75506542 149.71508314 -214.71887028 149.97917558 -218.375 150.25 C-222.15920343 149.98902045 -223.499411 149.7891185 -226 147 C-227.33915666 143.69674691 -227.11111938 142.30249164 -225.875 138.9375 C-223.87251735 135.80027718 -221.97639904 134.19686595 -219 132 C-216.17995679 129.32457439 -213.60460847 126.5485537 -211.125 123.5625 C-208.46986992 120.39570423 -205.5584809 117.82001196 -202.3203125 115.26171875 C-201.88460938 114.84535156 -201.44890625 114.42898438 -201 114 C-201 113.34 -201 112.68 -201 112 C-200.2575 111.566875 -199.515 111.13375 -198.75 110.6875 C-195.67220656 108.79885403 -194.23117299 106.82177761 -192 104 C-190.16850377 102.39050331 -188.2979531 100.85068114 -186.390625 99.33203125 C-185.93171875 98.89246094 -185.4728125 98.45289063 -185 98 C-185 97.34 -185 96.68 -185 96 C-183.34183078 94.98597209 -181.67337245 93.98873779 -180 93 C-178.40902992 91.58712986 -176.86223256 90.12344213 -175.35546875 88.62109375 C-174.09379883 87.36329102 -174.09379883 87.36329102 -172.80664062 86.08007812 C-171.94232422 85.20802734 -171.07800781 84.33597656 -170.1875 83.4375 C-169.30384766 82.56158203 -168.42019531 81.68566406 -167.50976562 80.78320312 C-166.25776367 79.52733398 -166.25776367 79.52733398 -164.98046875 78.24609375 C-164.21629639 77.47966553 -163.45212402 76.7132373 -162.66479492 75.92358398 C-160.78186281 74.17194666 -160.78186281 74.17194666 -161 72 C-160.28972656 71.5771875 -159.57945312 71.154375 -158.84765625 70.71875 C-155.55177503 68.72946641 -153.07535517 66.25858918 -150.4375 63.5 C-142.49425599 55.26175243 -142.49425599 55.26175243 -138.16796875 54.50390625 C-133.95218008 55.16408524 -131.46694423 57.24954563 -128.3125 59.9375 C-127.70164551 60.43822021 -127.09079102 60.93894043 -126.46142578 61.45483398 C-125.2177345 62.47642595 -123.97906401 63.50416226 -122.74560547 64.53808594 C-120.31258623 66.57569701 -117.84117023 68.56522426 -115.375 70.5625 C-109.55967519 75.34649299 -103.77742502 80.170355 -98 85 C-97.67 82.36 -97.34 79.72 -97 77 C-96.67 77 -96.34 77 -96 77 C-96 79.64 -96 82.28 -96 85 C-88.14494833 78.49431815 -81.06375879 71.19069585 -73.875 63.97265625 C-72.51901842 62.61480652 -71.1628136 61.25717967 -69.80639648 59.89976501 C-66.2598394 56.34941401 -62.71629739 52.79606883 -59.17340088 49.24206543 C-55.5484264 45.60680922 -51.92057251 41.97442901 -48.29296875 38.34179688 C-41.19251099 31.23065698 -34.09523903 24.1163467 -27 17 C-27.9475255 15.86857851 -28.89876471 14.74026641 -29.8515625 13.61328125 C-30.64554443 12.67029175 -30.64554443 12.67029175 -31.45556641 11.70825195 C-33.13332333 9.85253504 -34.98585665 8.47187399 -37 7 C-37 6.34 -37 5.68 -37 5 C-24.79 4.34 -12.58 3.68 0 3 C0 2.01 0 1.02 0 0 Z " fill="#81A36B" transform="translate(553,416)"/>
<path d="M0 0 C0.66914429 -0.00241196 1.33828857 -0.00482391 2.02770996 -0.00730896 C3.43633985 -0.00633354 4.84500951 0.00698777 6.25341797 0.03198242 C8.40074807 0.06631827 10.54396249 0.05262699 12.69140625 0.03320312 C14.06512155 0.04010214 15.43882631 0.04977506 16.8125 0.0625 C18.05322266 0.07337646 19.29394531 0.08425293 20.57226562 0.09545898 C24.50438641 0.72460983 26.17009759 1.76950089 28.90625 4.62890625 C29.84373823 7.43835641 30.03818813 10.03144287 30.06015015 12.97982788 C30.06875061 13.84331345 30.07735107 14.70679901 30.08621216 15.59645081 C30.09047211 16.5357695 30.09473206 17.4750882 30.09912109 18.44287109 C30.11138733 19.93621727 30.11138733 19.93621727 30.12390137 21.45973206 C30.14870745 24.75309654 30.16525681 28.04641814 30.1796875 31.33984375 C30.18501118 32.46504047 30.19033485 33.5902372 30.19581985 34.74953079 C30.22252719 40.70215422 30.24191217 46.65475682 30.25634766 52.60742188 C30.26970268 57.53501889 30.29758812 62.46220336 30.33837891 67.38964844 C30.38763679 73.3400423 30.41245995 79.29006112 30.41957474 85.24065018 C30.42629454 87.5076774 30.44153538 89.77469602 30.46546555 92.0416069 C30.49704663 95.21356757 30.49716432 98.38407606 30.48974609 101.55615234 C30.50615143 102.49142258 30.52255676 103.42669281 30.53945923 104.39030457 C30.49817886 108.70332862 30.30573262 111.72366376 27.60806274 115.20376587 C23.86918154 118.55977631 20.71068472 118.59604418 15.90625 118.62890625 C14.64425781 118.66628906 13.38226563 118.70367188 12.08203125 118.7421875 C-5.7907807 119.14128503 -5.7907807 119.14128503 -10.79956818 115.33138847 C-12.45485758 113.15387313 -12.47527683 111.92128622 -12.48815918 109.20169067 C-12.49950897 108.29606384 -12.51085876 107.39043701 -12.52255249 106.45736694 C-12.51962189 105.46612823 -12.51669128 104.47488953 -12.51367188 103.45361328 C-12.52214142 102.40782104 -12.53061096 101.36202881 -12.53933716 100.2845459 C-12.56278589 96.81848067 -12.56372734 93.35285738 -12.5625 89.88671875 C-12.56959732 87.48159608 -12.57729568 85.07647511 -12.58557129 82.6713562 C-12.5990346 77.62574561 -12.60057674 72.58029152 -12.59472656 67.53466797 C-12.58883195 61.06564024 -12.61940459 54.59736339 -12.65984344 48.12848091 C-12.68568257 43.15965726 -12.6886012 38.19101522 -12.68495178 33.22213364 C-12.68664688 30.83707671 -12.69632667 28.45201175 -12.71409607 26.06702042 C-12.73620749 22.73183103 -12.72662187 19.39817201 -12.70898438 16.06298828 C-12.72224762 15.07579803 -12.73551086 14.08860779 -12.74917603 13.07150269 C-12.69230389 8.44784389 -12.60371819 6.31015848 -9.76367188 2.51622009 C-6.32198257 0.08335944 -4.19382311 -0.00245094 0 0 Z " fill="#80A36A" transform="translate(412.09375,526.37109375)"/>
<path d="M0 0 C1.16724609 -0.01611328 2.33449219 -0.03222656 3.53710938 -0.04882812 C14.7263063 -0.05520374 14.7263063 -0.05520374 19.0625 3.3125 C21.45861968 7.70904839 21.34574002 12.10687183 21.32128906 16.98657227 C21.3247937 17.84894501 21.32829834 18.71131775 21.33190918 19.599823 C21.34069304 22.44293325 21.33488966 25.28579358 21.328125 28.12890625 C21.32947249 30.10758003 21.33141372 32.0862535 21.33392334 34.06492615 C21.33686996 38.2082739 21.3325913 42.35153534 21.32324219 46.49487305 C21.3118405 51.80683788 21.31841461 57.11860076 21.33038712 62.4305582 C21.33761178 66.51488265 21.33531511 70.59915915 21.33013153 74.68348503 C21.3287971 76.64231325 21.33043552 78.60114581 21.33509064 80.55996895 C21.3401666 83.29603751 21.33243085 86.03177814 21.32128906 88.76782227 C21.32533752 89.57780167 21.32938599 90.38778107 21.33355713 91.2223053 C21.28012893 98.30039693 21.28012893 98.30039693 19.0625 101.3125 C10.93596037 106.73019309 -4.5424074 104.98071374 -14.05859375 103.7890625 C-16.91663586 103.06415369 -18.26590949 101.68058655 -19.9375 99.3125 C-21.21397923 95.48306232 -21.09314932 91.87221678 -21.09863281 87.88134766 C-21.10359772 87.02087326 -21.10856262 86.16039886 -21.11367798 85.27384949 C-21.12829373 82.42474572 -21.13510036 79.57569761 -21.140625 76.7265625 C-21.1463766 74.74742633 -21.15213433 72.76829018 -21.15789795 70.78915405 C-21.16840603 66.63807923 -21.17425007 62.48702376 -21.17773438 58.3359375 C-21.18322102 53.01724551 -21.20725355 47.69880927 -21.23570633 42.38019753 C-21.25433018 38.29154716 -21.25953816 34.20295846 -21.26107025 30.11426926 C-21.26409749 28.15346248 -21.27212841 26.19265681 -21.28525543 24.23189163 C-21.30231179 21.4885435 -21.30043678 18.74582107 -21.29394531 16.00244141 C-21.3031601 15.19291519 -21.31237488 14.38338898 -21.3218689 13.54933167 C-21.28788455 8.9641187 -20.8250618 5.93929935 -17.9375 2.3125 C-12.41681304 -0.77305218 -6.14278151 -0.01690364 0 0 Z " fill="#80A36A" transform="translate(476.9375,540.6875)"/>
<path d="M0 0 C1.07185547 -0.020625 2.14371094 -0.04125 3.24804688 -0.0625 C14.04057364 -0.11596143 14.04057364 -0.11596143 18.0625 3.25 C20.20040903 9.70009548 20.34107205 15.75208387 20.29296875 22.50390625 C20.29251053 23.56359116 20.29205231 24.62327606 20.2915802 25.71507263 C20.28857242 27.94474413 20.28073059 30.1744138 20.26831055 32.40405273 C20.25003894 35.80525201 20.24780128 39.20617857 20.24804688 42.60742188 C20.24313127 44.78125234 20.23730276 46.95508097 20.23046875 49.12890625 C20.22935593 50.139496 20.2282431 51.15008575 20.22709656 52.19129944 C20.13784047 65.54737759 20.13784047 65.54737759 17.5625 69.625 C10.74347494 74.05736629 -0.11841262 72.43982755 -7.9375 72.25 C-8.83597656 72.23324219 -9.73445313 72.21648437 -10.66015625 72.19921875 C-11.43230469 72.15410156 -12.20445312 72.10898437 -13 72.0625 C-13.65097656 72.02769531 -14.30195313 71.99289062 -14.97265625 71.95703125 C-18.23903872 70.78165306 -20.24252274 69.23375212 -21.9375 66.25 C-22.71062225 61.77873438 -22.63762254 57.34063591 -22.6015625 52.8125 C-22.60634613 51.49967041 -22.61112976 50.18684082 -22.61605835 48.83422852 C-22.62341486 46.06008373 -22.61276586 43.28674598 -22.58935547 40.51269531 C-22.56086572 36.96470402 -22.57727664 33.41860373 -22.60721779 29.87068176 C-22.62967705 26.47613804 -22.61393158 23.08209739 -22.6015625 19.6875 C-22.61168365 18.41656494 -22.62180481 17.14562988 -22.63223267 15.83618164 C-22.51602074 7.10060925 -22.51602074 7.10060925 -19.70849609 2.97265625 C-13.69186465 -0.76772714 -6.88060548 0.03298073 0 0 Z " fill="#80A36A" transform="translate(365.9375,572.75)"/>
<path d="M0 0 C0.78244583 -0.00511093 1.56489166 -0.01022186 2.37104797 -0.01548767 C4.96049629 -0.02940015 7.54967888 -0.02842548 10.13916016 -0.02612305 C11.93893533 -0.03000948 13.7387096 -0.03434405 15.53848267 -0.03910828 C19.31295747 -0.04657435 23.08733875 -0.04627672 26.86181641 -0.04101562 C31.69627213 -0.03522488 36.53034425 -0.05214048 41.36473656 -0.0753603 C45.08281692 -0.09010153 48.80080504 -0.09096873 52.51890945 -0.08785057 C54.30108016 -0.08836373 56.08325603 -0.09360053 57.86539841 -0.10366249 C60.35973671 -0.11601523 62.85332965 -0.10924216 65.34765625 -0.09765625 C66.08237656 -0.10529999 66.81709686 -0.11294373 67.57408142 -0.12081909 C71.9931295 -0.07550803 74.80266636 0.53671539 78.30322266 3.2746582 C80.6487194 6.79290332 80.88313668 8.13241515 80.30322266 12.2746582 C77.752979 15.37630589 76.12623019 17.00032236 72.30322266 18.2746582 C69.88637062 18.37546918 67.49830377 18.42150832 65.08129883 18.41992188 C63.9831913 18.42495979 63.9831913 18.42495979 62.86289978 18.43009949 C60.44064643 18.43960473 58.01846226 18.44155253 55.59619141 18.44262695 C53.91091381 18.44584034 52.2256365 18.44920447 50.5403595 18.45271301 C47.00549676 18.45870357 43.47065847 18.46055304 39.93579102 18.45996094 C35.41315678 18.45985944 30.89067996 18.4734996 26.368083 18.49073315 C22.88588241 18.50187048 19.40371964 18.5038796 15.92150307 18.50335121 C14.25459565 18.50452917 12.5876872 18.50894064 10.92079735 18.51668358 C8.58486404 18.52651646 6.24926921 18.5235923 3.91333008 18.51757812 C3.22895874 18.52319763 2.5445874 18.52881714 1.83947754 18.53460693 C-3.05655096 18.50268789 -7.41741356 17.84663323 -11.50927734 15.0246582 C-13.27456492 12.42318178 -13.57168259 10.40202716 -13.69677734 7.2746582 C-10.66891775 0.61336709 -6.7904453 -0.02277135 0 0 Z " fill="#84A76E" transform="translate(627.69677734375,484.725341796875)"/>
<path d="M0 0 C0.82321243 -0.00861557 1.64642487 -0.01723114 2.49458313 -0.02610779 C5.21350619 -0.04879567 7.93140099 -0.04202438 10.65039062 -0.03295898 C12.5408153 -0.03819309 14.43123735 -0.04446878 16.32165527 -0.05174255 C20.28275852 -0.06215177 24.24350263 -0.05757746 28.20458984 -0.04296875 C33.282643 -0.02577432 38.3595654 -0.0492814 43.43749237 -0.08445835 C47.34087635 -0.10640962 51.24398876 -0.1049965 55.14741516 -0.09669304 C57.01973206 -0.09587238 58.89206868 -0.10275761 60.764328 -0.11746407 C63.38135486 -0.13486982 65.996337 -0.12040254 68.61328125 -0.09765625 C69.38742874 -0.10934845 70.16157623 -0.12104065 70.95918274 -0.13308716 C74.76995517 -0.06563725 76.45910163 0.20888958 79.28747559 2.85023499 C81.2822538 6.37349498 81.38680527 8.54481535 80.80664062 12.53344727 C78.58801033 15.440618 77.28719134 16.37326369 73.80664062 17.53344727 C71.2985447 17.63955906 68.81782329 17.69067728 66.30932617 17.69458008 C65.16732758 17.70202744 65.16732758 17.70202744 64.0022583 17.70962524 C61.48261613 17.72423444 58.96303694 17.73104706 56.44335938 17.73657227 C54.69082131 17.74232508 52.93828327 17.7480828 51.18574524 17.75384521 C47.50965075 17.7643519 43.8335781 17.77019663 40.1574707 17.77368164 C35.45317198 17.77916332 30.74916313 17.80318572 26.04495525 17.83165359 C22.42378402 17.85030294 18.80268226 17.85548681 15.18146706 17.85701752 C13.44756296 17.86003978 11.71365996 17.86805392 9.97980309 17.8812027 C7.55035916 17.89831018 5.12161885 17.89637162 2.69213867 17.88989258 C1.62350334 17.90371475 1.62350334 17.90371475 0.53327942 17.91781616 C-4.10069352 17.87921891 -7.24739432 16.95086875 -11.19335938 14.53344727 C-13.19563382 12.00884036 -13.20334003 10.77298295 -13.06835938 7.53344727 C-11.01483573 0.49279478 -6.67416528 -0.05626162 0 0 Z " fill="#81A16A" transform="translate(627.193359375,451.466552734375)"/>
<path d="M0 0 C1.03820389 -0.00622879 2.07640778 -0.01245758 3.14607239 -0.01887512 C4.26277817 -0.00966537 5.37948395 -0.00045563 6.5300293 0.0090332 C7.68415817 0.0085347 8.83828705 0.00803619 10.02738953 0.00752258 C12.4692863 0.00986298 14.91118549 0.01958939 17.35302734 0.03613281 C21.07956696 0.05965864 24.80538773 0.05670126 28.53198242 0.05004883 C30.90633563 0.05562805 33.28068582 0.06273945 35.6550293 0.0715332 C37.32097893 0.07016609 37.32097893 0.07016609 39.02058411 0.06877136 C44.63648759 0.11986699 49.53263672 0.31408972 54.79174805 2.37231445 C57.27878447 5.17023042 57.79174805 6.63338121 57.79174805 10.37231445 C56.43447597 14.44413068 55.30783376 15.82437244 51.79174805 18.37231445 C47.53174213 19.09074658 43.32031501 18.97681039 39.01049805 18.89575195 C37.76425659 18.89104889 36.51801514 18.88634583 35.23400879 18.88150024 C31.92775553 18.86377505 28.622725 18.82388636 25.3168335 18.77392578 C21.96088915 18.72982585 18.60497745 18.71950987 15.2487793 18.7043457 C10.33649508 18.67039815 5.42436234 18.63533937 0.51245117 18.56518555 C-0.47396362 18.55232513 -1.46037842 18.53946472 -2.47668457 18.5262146 C-5.14316529 18.37598152 -7.60745298 17.96464786 -10.20825195 17.37231445 C-12.61723121 9.41748367 -12.61723121 9.41748367 -11.08325195 5.49731445 C-7.62045949 1.57281632 -5.30553183 -0.00366349 0 0 Z " fill="#83A46D" transform="translate(626.208251953125,518.627685546875)"/>
<path d="M0 0 C2.02920662 -0.00082982 4.05841315 -0.00329348 6.08761597 -0.00730896 C10.32570803 -0.01015732 14.56326878 0.00444281 18.80126953 0.03198242 C24.21942222 0.0661069 29.63662836 0.06002311 35.05482674 0.04131985 C39.23973411 0.03072774 43.42442306 0.03970708 47.60931015 0.05470467 C49.60669175 0.05986775 51.60409633 0.05942756 53.60147476 0.05315971 C56.39643316 0.04767899 59.19005718 0.06817212 61.98486328 0.09545898 C62.80065857 0.08893311 63.61645386 0.08240723 64.45697021 0.07568359 C73.01892927 0.21705332 78.6474841 3.59108623 84.64599609 9.609375 C85.13163025 10.09121246 85.6172644 10.57304993 86.11761475 11.06948853 C87.69768763 12.64223655 89.26303332 14.22876102 90.828125 15.81640625 C91.93218037 16.92284987 93.03698054 18.02855073 94.14248657 19.13354492 C96.44647114 21.44064312 98.74362501 23.75425791 101.03564453 26.07324219 C103.97089195 29.04258715 106.91925369 31.99847564 109.87235069 34.95005798 C112.14975911 37.22801039 114.42191733 39.51113851 116.69234085 41.79605103 C117.77799727 42.88805969 118.86485853 43.9788719 119.95295334 45.06845093 C121.47031823 46.59015873 122.98091454 48.11827417 124.48974609 49.6484375 C125.34941986 50.51573486 126.20909363 51.38303223 127.09481812 52.27661133 C130.85006684 56.51354462 131.42997434 59.43846964 131.43365479 65.09475708 C131.43833476 66.06556884 131.43833476 66.06556884 131.44310927 67.05599296 C131.45108026 69.22248015 131.44476934 71.38868655 131.43847656 73.55517578 C131.44118677 75.10915287 131.44474788 76.66312868 131.44909668 78.21710205 C131.45821785 82.43590521 131.45467795 86.6546106 131.44833851 90.87341547 C131.44327892 95.28474347 131.44796968 99.69606303 131.45111084 104.10739136 C131.45474984 111.51350408 131.44995232 118.91957692 131.44042969 126.32568359 C131.42953723 134.89630548 131.43307671 143.46683227 131.4440825 152.03745186 C131.45314769 159.39037744 131.45444467 166.74327433 131.44920516 174.09620368 C131.44608225 178.49040212 131.44568505 182.88455579 131.45227814 187.27875137 C131.4580401 191.40735852 131.45407594 195.53584255 131.44248962 199.66443634 C131.4398372 201.18262655 131.44061801 202.70082706 131.44501495 204.21901321 C131.45044887 206.28515796 131.44366313 208.35090365 131.43365479 210.41702271 C131.43252371 212.15418391 131.43252371 212.15418391 131.43136978 213.92643929 C131.1796875 216.62890625 131.1796875 216.62890625 129.1796875 218.62890625 C129.17822094 217.80983984 129.17675438 216.99077343 129.17524338 216.14688683 C129.13819025 196.21633871 129.07919536 176.28596085 128.99578476 156.35555077 C128.95597696 146.717337 128.92359332 137.07920508 128.90869141 127.44091797 C128.89568391 119.04008822 128.86874234 110.63943844 128.82507443 102.23871005 C128.80243928 97.79063163 128.78677805 93.34277537 128.78780365 88.89463425 C128.78854905 84.70681106 128.77064671 80.51947933 128.73851967 76.33178329 C128.73000973 74.79594667 128.72827819 73.26005499 128.73388481 71.72420502 C128.74053034 69.62378126 128.72259464 67.52491869 128.69866943 65.4246521 C128.69498226 64.25028784 128.69129509 63.07592358 128.68749619 61.86597252 C127.86828817 56.64386678 125.00101398 52.9307371 120.8671875 49.75390625 C118.26244935 47.64734194 116.06006142 45.44818588 113.89379883 42.89526367 C108.52653891 36.67831264 102.73652296 30.8859246 96.95629883 25.05541992 C95.56351608 23.64603511 94.1761263 22.23130038 92.79418945 20.8112793 C90.7721887 18.73410472 88.73384861 16.67424321 86.69140625 14.6171875 C86.08689133 13.9900032 85.4823764 13.36281891 84.85954285 12.71662903 C75.74896811 3.64952612 67.47102566 1.98573922 55.01304626 1.98547363 C53.17144943 2.00106091 51.32986081 2.01764599 49.48828125 2.03515625 C47.57357356 2.03687016 45.65886353 2.03679882 43.74415588 2.03503418 C39.74562911 2.03668133 35.7476671 2.05526913 31.74926758 2.08691406 C26.64294852 2.1266163 21.53736668 2.13095218 16.43092251 2.12345123 C12.48189123 2.1203713 8.53302339 2.13253796 4.58403206 2.14958191 C2.70191537 2.15657554 0.81978017 2.15974089 -1.06234932 2.15888977 C-3.6988847 2.16070217 -6.33456179 2.18220498 -8.97094727 2.20898438 C-9.73639359 2.20605377 -10.5018399 2.20312317 -11.29048157 2.20010376 C-18.48643986 2.31199147 -26.11238118 3.9147436 -31.48397255 9.0403223 C-39.25806515 18.28183207 -38.53408843 28.48104541 -38.46728516 39.88891602 C-38.47406847 41.83636287 -38.48297559 43.7838033 -38.49383545 45.73123169 C-38.51654887 50.99776606 -38.50782569 56.26380841 -38.49194002 61.53035092 C-38.47924158 67.05279399 -38.49103191 72.57519619 -38.49887085 78.09764099 C-38.50795515 87.36880015 -38.49601064 96.63975983 -38.47216797 105.91088867 C-38.44495113 116.61744651 -38.45378 127.32352832 -38.4813 138.03007466 C-38.50401515 147.23717614 -38.50717958 156.44413461 -38.49410665 165.65125507 C-38.48632645 171.14391596 -38.48523141 176.63635333 -38.50178909 182.12899971 C-38.51626982 187.29288693 -38.50614608 192.45616231 -38.47731781 197.61998367 C-38.47072662 199.5109563 -38.47257088 201.40198074 -38.48363113 203.29293251 C-38.61796512 218.11608483 -38.61796512 218.11608483 -31.07699013 230.44822025 C-27.40212624 233.95193581 -23.55551495 235.88944413 -18.8203125 237.62890625 C-21.14940049 238.45002596 -22.36609494 238.80029143 -24.71484375 237.9140625 C-32.77482898 232.77602711 -38.12366468 226.95304761 -40.8203125 217.62890625 C-41.2049115 214.85016236 -41.22697678 212.12664625 -41.20126343 209.32447815 C-41.2059434 208.52770013 -41.21062337 207.73092212 -41.21544516 206.90999931 C-41.22733673 204.26087119 -41.21796099 201.61226601 -41.20849609 198.96313477 C-41.21256443 197.05539652 -41.21790777 195.14766064 -41.22442627 193.2399292 C-41.23807543 188.07254904 -41.23281085 182.90534904 -41.22328901 177.73796582 C-41.2156789 172.32228956 -41.22274188 166.90662843 -41.22744751 161.49095154 C-41.23290158 152.39620198 -41.22572305 143.30152556 -41.21142578 134.20678711 C-41.19510488 123.70373117 -41.20038515 113.20085001 -41.216905 102.69779831 C-41.23053562 93.66910579 -41.23243166 84.64046577 -41.22458899 75.61176628 C-41.21992052 70.22420161 -41.21926481 64.83671897 -41.22919846 59.44915962 C-41.23788858 54.38229349 -41.2318088 49.3156518 -41.21451569 44.24880981 C-41.21056156 42.39330861 -41.21166641 40.53778839 -41.21830368 38.68229485 C-41.28946531 16.76111827 -41.28946531 16.76111827 -34.7578125 9.37890625 C-24.57379718 -0.79000938 -13.54811785 -0.1003962 0 0 Z " fill="#97AA81" transform="translate(613.8203125,349.37109375)"/>
<path d="M0 0 C1.67431118 2.62066097 2.3631489 4.12725375 2.4375 7.25 C0.43452116 12.62641689 0.43452116 12.62641689 -2.41337585 14.40762329 C-4.69016596 15.30004031 -6.32546661 15.51459989 -8.76098633 15.54052734 C-9.57896194 15.55328705 -10.39693756 15.56604675 -11.23970032 15.57919312 C-12.55384163 15.58253159 -12.55384163 15.58253159 -13.89453125 15.5859375 C-14.80450363 15.5925943 -15.71447601 15.5992511 -16.65202332 15.60610962 C-18.57601911 15.61622545 -20.50004991 15.62092697 -22.42407227 15.62060547 C-25.35427361 15.62496913 -28.2829566 15.66127326 -31.21289062 15.69921875 C-33.08593237 15.70508919 -34.95898125 15.70905706 -36.83203125 15.7109375 C-38.13706352 15.73249405 -38.13706352 15.73249405 -39.46846008 15.75448608 C-45.30376463 15.71109142 -48.82843475 14.74368007 -53.5625 11.25 C-54.88427033 7.21125731 -55.01937175 5.2507667 -53.25 1.375 C-51.5625 -0.75 -51.5625 -0.75 -49.5625 -1.75 C-46.91013147 -1.91932398 -44.28036996 -2.03289995 -41.625 -2.1015625 C-40.43293945 -2.13629166 -40.43293945 -2.13629166 -39.21679688 -2.17172241 C-37.52887441 -2.21941002 -35.84088096 -2.26463817 -34.15283203 -2.30761719 C-31.60028108 -2.37401719 -29.04827698 -2.4520972 -26.49609375 -2.53125 C-4.62008231 -3.15517816 -4.62008231 -3.15517816 0 0 Z " fill="#81A26B" transform="translate(668.5625,420.75)"/>
<path d="M0 0 C1.17626953 -0.020625 2.35253906 -0.04125 3.56445312 -0.0625 C14.88053348 -0.11367504 14.88053348 -0.11367504 19.1875 3.25 C21.58269989 7.64728232 21.47074176 12.04402623 21.44628906 16.92407227 C21.4497937 17.78644501 21.45329834 18.64881775 21.45690918 19.537323 C21.46569304 22.38043325 21.45988966 25.22329358 21.453125 28.06640625 C21.45447249 30.04508003 21.45641372 32.0237535 21.45892334 34.00242615 C21.46186996 38.1457739 21.4575913 42.28903534 21.44824219 46.43237305 C21.4368405 51.74433788 21.44341461 57.05610076 21.45538712 62.3680582 C21.46261178 66.45238265 21.46031511 70.53665915 21.45513153 74.62098503 C21.4537971 76.57981325 21.45543552 78.53864581 21.46009064 80.49746895 C21.4651666 83.23353751 21.45743085 85.96927814 21.44628906 88.70532227 C21.45033752 89.51530167 21.45438599 90.32528107 21.45855713 91.1598053 C21.40512893 98.23789693 21.40512893 98.23789693 19.1875 101.25 C11.06096037 106.66769309 -4.4174074 104.91821374 -13.93359375 103.7265625 C-16.79163586 103.00165369 -18.14090949 101.61808655 -19.8125 99.25 C-21.0982682 95.39269541 -20.94361459 91.75819118 -20.92602539 87.73950195 C-20.92617142 86.87099609 -20.92631744 86.00249023 -20.9264679 85.10766602 C-20.92577076 82.23451243 -20.91798761 79.36142352 -20.91015625 76.48828125 C-20.90829137 74.49716731 -20.90686779 72.50605292 -20.90586853 70.51493835 C-20.9020489 65.27227514 -20.89222332 60.02963959 -20.88116455 54.7869873 C-20.87093854 49.43807347 -20.86636835 44.08915517 -20.86132812 38.74023438 C-20.85060058 28.24347742 -20.83353077 17.74674101 -20.8125 7.25 C-20.1525 7.25 -19.4925 7.25 -18.8125 7.25 C-18.80885437 8.36864441 -18.80520874 9.48728882 -18.80145264 10.63983154 C-18.76453163 21.1755197 -18.70679071 31.71091478 -18.62859726 42.24637985 C-18.58906677 47.66296359 -18.55690562 53.0793834 -18.54150391 58.49609375 C-18.52637405 63.72231623 -18.49199384 68.9480882 -18.44419098 74.17411041 C-18.42933925 76.16918271 -18.42145682 78.16431932 -18.42061615 80.15944672 C-18.41825614 82.95151456 -18.39125487 85.74232754 -18.35839844 88.53417969 C-18.36594398 89.77495773 -18.36594398 89.77495773 -18.37364197 91.040802 C-18.30755038 94.66428563 -18.13650469 96.81394141 -15.94424438 99.76437378 C-13.19279655 101.68187528 -11.50139224 101.73868963 -8.1640625 101.7109375 C-7.07609375 101.70707031 -5.988125 101.70320312 -4.8671875 101.69921875 C-3.73539062 101.67472656 -2.60359375 101.65023437 -1.4375 101.625 C-0.3134375 101.62371094 0.810625 101.62242187 1.96875 101.62109375 C7.54813003 101.56173864 11.89563122 101.093807 17.1875 99.25 C17.21062166 87.01119671 17.22841418 74.77239857 17.23931217 62.53357792 C17.24454139 56.85123488 17.25163973 51.16890673 17.26293945 45.48657227 C17.27376696 40.00770864 17.27977654 34.52885938 17.28237724 29.04998589 C17.28423174 26.95470389 17.28785282 24.85942272 17.29323006 22.7641468 C17.30043868 19.84022416 17.30149102 16.91636167 17.30102539 13.99243164 C17.3064183 12.67937042 17.3064183 12.67937042 17.31192017 11.33978271 C17.6864863 7.48477291 17.6864863 7.48477291 16.1875 4.25 C13.73919574 4.16156207 11.31929401 4.13471248 8.87109375 4.15234375 C8.14003922 4.1537587 7.40898468 4.15517365 6.65577698 4.15663147 C4.31214368 4.16224592 1.96860461 4.17480078 -0.375 4.1875 C-1.96028508 4.19251314 -3.54557166 4.19707637 -5.13085938 4.20117188 C-9.0247761 4.21222003 -12.91862205 4.22949428 -16.8125 4.25 C-16.4825 3.26 -16.1525 2.27 -15.8125 1.25 C-10.70556452 -0.45231183 -5.3462462 0.02320671 0 0 Z " fill="#789763" transform="translate(476.8125,540.75)"/>
<path d="M0 0 C0.71873795 -0.00524185 1.43747589 -0.0104837 2.17799377 -0.0158844 C3.69685577 -0.02230231 5.21576748 -0.0209705 6.73461914 -0.01245117 C9.05510311 -0.00394767 11.37311911 -0.03268925 13.69335938 -0.06445312 C15.17057218 -0.06606549 16.64778933 -0.06548694 18.125 -0.0625 C18.81677841 -0.07373398 19.50855682 -0.08496796 20.22129822 -0.09654236 C23.4052128 -0.05064077 25.36027488 0.25571438 28.03540039 2.02709961 C32.11422438 8.18689248 30.78354838 17.36609136 30.79003906 24.44970703 C30.79748642 26.3996608 30.79748642 26.3996608 30.80508423 28.38900757 C30.81813473 31.93840188 30.8246376 35.48777735 30.82909489 39.03719187 C30.83203483 41.25660737 30.83614113 43.47601782 30.84059906 45.69543076 C30.85424862 52.64566145 30.86393021 59.59588047 30.86780095 66.54612362 C30.8722891 74.55930925 30.88988257 82.57232493 30.91880155 90.58545887 C30.94041276 96.789452 30.95050477 102.99339726 30.95184207 109.19742763 C30.95288961 112.89923398 30.95878764 116.60088002 30.97666168 120.30264664 C30.99619415 124.42729302 30.99185571 128.55158205 30.98535156 132.67626953 C30.99917374 134.51230743 30.99917374 134.51230743 31.01327515 136.38543701 C31.00770599 137.50969086 31.00213684 138.6339447 30.99639893 139.79226685 C30.99786549 140.76672823 30.99933205 141.74118961 31.00084305 142.74518013 C30.55682879 145.95458021 29.51242088 147.81817083 27.62890625 150.43359375 C22.08450258 154.5716121 15.67391219 153.84119314 9.06640625 153.74609375 C7.94298828 153.74931641 6.81957031 153.75253906 5.66210938 153.75585938 C-3.86145468 153.69361386 -3.86145468 153.69361386 -8.37109375 151.43359375 C-9.68359375 149.30859375 -9.68359375 149.30859375 -10.37109375 147.43359375 C-9.66911865 147.92110107 -8.96714355 148.4086084 -8.24389648 148.91088867 C-4.99101857 150.63504942 -3.06044393 150.8075035 0.59375 150.796875 C2.28854492 150.7959082 2.28854492 150.7959082 4.01757812 150.79492188 C5.18869141 150.77880859 6.35980469 150.76269531 7.56640625 150.74609375 C9.31727539 150.75092773 9.31727539 150.75092773 11.10351562 150.75585938 C17.01502882 150.71880716 20.877195 150.35083083 26.62890625 148.43359375 C26.62890625 100.91359375 26.62890625 53.39359375 26.62890625 4.43359375 C21.89491106 2.85559535 19.63616997 2.18277114 14.96875 2.203125 C13.40737305 2.20602539 13.40737305 2.20602539 11.81445312 2.20898438 C10.74259766 2.22123047 9.67074219 2.23347656 8.56640625 2.24609375 C6.95282227 2.24706055 6.95282227 2.24706055 5.30664062 2.24804688 C0.59368379 2.2743436 -3.75937724 2.38583266 -8.37109375 3.43359375 C-9.60869198 7.14638844 -9.72718272 10.74665721 -9.93359375 14.62109375 C-9.97677734 15.37068359 -10.01996094 16.12027344 -10.06445312 16.89257812 C-10.1703206 18.7393775 -10.27119135 20.58646209 -10.37109375 22.43359375 C-10.70109375 22.43359375 -11.03109375 22.43359375 -11.37109375 22.43359375 C-11.59507108 20.39358402 -11.79957912 18.35143186 -11.99609375 16.30859375 C-12.11210937 15.17164063 -12.228125 14.0346875 -12.34765625 12.86328125 C-12.37675033 8.60584756 -11.66349707 5.34064563 -9.25610352 1.78833008 C-6.38105153 -0.27793899 -3.41192574 -0.01443664 0 0 Z " fill="#7A9866" transform="translate(523.37109375,491.56640625)"/>
<path d="M0 0 C4.50232334 -0.07417023 9.00429091 -0.1286105 13.50708008 -0.16479492 C15.03871861 -0.17987936 16.57031398 -0.20034978 18.10180664 -0.22631836 C20.30365654 -0.26271847 22.50493533 -0.27972913 24.70703125 -0.29296875 C25.39150833 -0.30845261 26.07598541 -0.32393646 26.78120422 -0.33988953 C29.58225666 -0.34088057 31.52880082 -0.3156518 33.89331055 1.26831055 C35.91662342 4.43428413 36.12641793 7.66145376 36.15390015 11.35092163 C36.16250061 12.2144072 36.17110107 13.07789276 36.17996216 13.96754456 C36.18422211 14.90686325 36.18848206 15.84618195 36.19287109 16.81396484 C36.20513733 18.30731102 36.20513733 18.30731102 36.21765137 19.83082581 C36.24245745 23.12419029 36.25900681 26.41751189 36.2734375 29.7109375 C36.27876118 30.83613422 36.28408485 31.96133095 36.28956985 33.12062454 C36.31627719 39.07324797 36.33566217 45.02585057 36.35009766 50.97851562 C36.36345268 55.90611264 36.39133812 60.83329711 36.43212891 65.76074219 C36.48138679 71.71113605 36.50620995 77.66115487 36.51332474 83.61174393 C36.52004454 85.87877115 36.53528538 88.14578977 36.55921555 90.41270065 C36.59079663 93.58466132 36.59091432 96.75516981 36.58349609 99.92724609 C36.59990143 100.86251633 36.61630676 101.79778656 36.63320923 102.76139832 C36.59131176 107.1388979 36.3971472 110.08810969 33.60171509 113.57705688 C31.00935926 115.99128385 30.07529115 116.78180094 26.625 116.9375 C25.85542969 116.97617187 25.08585937 117.01484375 24.29296875 117.0546875 C21.10618474 116.97868243 18.13111757 116.5995757 15 116 C15 115.67 15 115.34 15 115 C15.89203125 114.95101562 16.7840625 114.90203125 17.703125 114.8515625 C18.87359375 114.77679687 20.0440625 114.70203125 21.25 114.625 C22.99023438 114.52058594 22.99023438 114.52058594 24.765625 114.4140625 C27.72663957 114.03499542 29.53544013 113.63130392 32 112 C33.16677158 109.66645684 33.11479369 108.34636776 33.0957489 105.7487793 C33.08952515 104.41114029 33.08952515 104.41114029 33.08317566 103.04647827 C33.07337173 102.06563263 33.06356781 101.08478699 33.0534668 100.07421875 C33.04707184 99.0432608 33.04067688 98.01230286 33.03408813 96.95010376 C33.01123449 93.52917168 32.98064904 90.10836337 32.94921875 86.6875 C32.92999847 84.31860482 32.91094229 81.94970831 32.89204407 79.58081055 C32.85101038 74.61080062 32.80577614 69.64084844 32.75805664 64.67089844 C32.69742226 58.28821468 32.65054013 51.9055115 32.60722637 45.52268982 C32.57194156 40.62944678 32.52769341 35.73631521 32.48087502 30.84317017 C32.45976889 28.48917259 32.44188488 26.13514393 32.4272213 23.78109741 C32.40574908 20.49582447 32.37184541 17.2109093 32.3347168 13.92578125 C32.33098557 12.94493561 32.32725433 11.96408997 32.32341003 10.95352173 C32.31080139 10.06176239 32.29819275 9.17000305 32.28520203 8.2512207 C32.27495766 7.08536186 32.27495766 7.08536186 32.26450634 5.89595032 C32.16046846 3.758721 32.16046846 3.758721 30 2 C26.89243985 1.62677573 26.89243985 1.62677573 23.2421875 1.5859375 C22.57913605 1.56657135 21.91608459 1.5472052 21.23294067 1.5272522 C19.11375823 1.46744046 16.9945215 1.42106612 14.875 1.375 C13.43877831 1.33682155 12.00257955 1.29776989 10.56640625 1.2578125 C7.04448064 1.16173875 3.52238392 1.07771358 0 1 C0 0.67 0 0.34 0 0 Z " fill="#759461" transform="translate(406,528)"/>
<path d="M0 0 C1.65 0 3.3 0 5 0 C5.09346289 18.67159823 5.16398877 37.34314895 5.20724869 56.01493263 C5.22786938 64.68467659 5.2559805 73.35427515 5.30175781 82.02392578 C5.34164074 89.58085934 5.3674364 97.1376876 5.37635398 104.69472349 C5.3815663 108.69575053 5.39380661 112.69647633 5.42292023 116.69740677 C5.45011252 120.4648985 5.45843743 124.2319655 5.45243073 127.99954605 C5.45352927 129.38062347 5.46146086 130.7617154 5.4768219 132.14270782 C5.60083883 143.8693841 5.60083883 143.8693841 3.14349365 147.8140564 C0.73655575 150.26866153 -0.60304825 150.81128046 -4 151 C-3.195625 150.401875 -2.39125 149.80375 -1.5625 149.1875 C1.22327984 147.19052724 1.22327984 147.19052724 2 144 C2.10266301 142.08481349 2.14636905 140.16626686 2.15821838 138.24836731 C2.17290161 136.44996651 2.17290161 136.44996651 2.18788147 134.61523438 C2.19363693 133.29821533 2.1993924 131.98119629 2.20532227 130.62426758 C2.21490141 129.22482514 2.22491151 127.8253856 2.23532104 126.4259491 C2.26237225 122.62461357 2.28338065 118.82326563 2.30332303 115.02188706 C2.32518124 111.05002466 2.35257074 107.07820054 2.37937927 103.10636902 C2.42930838 95.58413841 2.47424641 88.06188656 2.51740164 80.53961438 C2.56677214 71.97620003 2.62169096 63.41282409 2.67708123 54.84944689 C2.79090463 37.23300026 2.8977429 19.61651738 3 2 C2.01 1.67 1.02 1.34 0 1 C0 0.67 0 0.34 0 0 Z " fill="#99AD84" transform="translate(722,420)"/>
<path d="M0 0 C0.495 1.485 0.495 1.485 1 3 C-3.70890129 5.75141735 -7.13458392 6.37490522 -12.5625 6.37231445 C-13.29500977 6.37596512 -14.02751953 6.37961578 -14.78222656 6.38337708 C-17.18839155 6.39144131 -19.59387429 6.37790737 -22 6.36328125 C-23.68098958 6.36276214 -25.36197977 6.3632818 -27.04296875 6.36479187 C-30.55998845 6.36470233 -34.07677806 6.35431053 -37.59375 6.33618164 C-42.0927902 6.31349518 -46.59149451 6.31295239 -51.09057617 6.31969929 C-54.55992598 6.3230472 -58.02919978 6.31639369 -61.49853516 6.30657005 C-63.15705975 6.30273195 -64.81559282 6.30156405 -66.47412109 6.3031559 C-68.79541009 6.30352844 -71.11627498 6.29085406 -73.4375 6.2746582 C-74.75621094 6.27005081 -76.07492187 6.26544342 -77.43359375 6.26069641 C-80.95217049 6.00349623 -83.72468882 5.27370356 -87 4 C-87 3.01 -87 2.02 -87 1 C-86.67 1.33 -86.34 1.66 -86 2 C-83.32212027 2.09512944 -80.67011131 2.12555279 -77.99194336 2.11352539 C-77.15299026 2.11367142 -76.31403717 2.11381744 -75.44966125 2.1139679 C-72.66302956 2.1132685 -69.87646384 2.10547485 -67.08984375 2.09765625 C-65.16313209 2.09579217 -63.23641995 2.09436822 -61.30970764 2.09336853 C-56.22812603 2.08954259 -51.1465728 2.07971166 -46.06500244 2.06866455 C-40.88383366 2.05845206 -35.70266031 2.05387126 -30.52148438 2.04882812 C-20.34764375 2.03808946 -10.17382423 2.02101213 0 2 C0 1.34 0 0.68 0 0 Z " fill="#7D9A65" transform="translate(705,497)"/>
<path d="M0 0 C10.47469199 -0.06952543 20.94932904 -0.12282425 31.42420483 -0.15543652 C36.28817587 -0.17108917 41.15198899 -0.1923202 46.01586914 -0.22631836 C50.71021895 -0.25892598 55.4044169 -0.27685603 60.09887123 -0.28463173 C61.88943179 -0.29017271 63.67998409 -0.30099291 65.47047997 -0.31719017 C67.97944443 -0.33898321 70.48778221 -0.34196616 72.99682617 -0.34057617 C74.10597633 -0.35675491 74.10597633 -0.35675491 75.23753357 -0.3732605 C79.67428402 -0.34668205 82.48773295 0.24577184 86 3 C88 6 88 6 88 9 C87.34 9 86.68 9 86 9 C85.01 6.525 85.01 6.525 84 4 C82.70906181 3.9845388 82.70906181 3.9845388 81.39204407 3.96876526 C73.22857515 3.87024568 65.06516917 3.76766086 56.90180683 3.66066074 C52.70629003 3.60580794 48.51076598 3.55245421 44.31518555 3.50268555 C40.25617954 3.45447914 36.19724515 3.40212719 32.13832664 3.34705925 C30.60003665 3.32688715 29.06172723 3.30813741 27.52340126 3.29092598 C18.3152305 3.18680827 9.17613552 2.84559476 0 2 C0 1.34 0 0.68 0 0 Z " fill="#7D9967" transform="translate(620,485)"/>
<path d="M0 0 C1.07185547 -0.020625 2.14371094 -0.04125 3.24804688 -0.0625 C14.04057364 -0.11596143 14.04057364 -0.11596143 18.0625 3.25 C20.20040903 9.70009548 20.34107205 15.75208387 20.29296875 22.50390625 C20.29251053 23.56359116 20.29205231 24.62327606 20.2915802 25.71507263 C20.28857242 27.94474413 20.28073059 30.1744138 20.26831055 32.40405273 C20.25003894 35.80525201 20.24780128 39.20617857 20.24804688 42.60742188 C20.24313127 44.78125234 20.23730276 46.95508097 20.23046875 49.12890625 C20.22935593 50.139496 20.2282431 51.15008575 20.22709656 52.19129944 C20.13535256 65.91966283 20.13535256 65.91966283 17.5 69.1875 C17.025625 69.538125 16.55125 69.88875 16.0625 70.25 C15.0725 69.92 14.0825 69.59 13.0625 69.25 C14.5475 68.26 14.5475 68.26 16.0625 67.25 C16.50235952 64.50276709 16.50235952 64.50276709 16.40307617 61.23974609 C16.40284958 59.97858978 16.40262299 58.71743347 16.40238953 57.4180603 C16.38706844 56.03651579 16.37142044 54.65497487 16.35546875 53.2734375 C16.34987433 51.86382497 16.3456035 50.45420662 16.34260559 49.04458618 C16.33114454 45.33231536 16.30166704 41.620396 16.26849365 37.90826416 C16.2324277 33.45548771 16.21863756 29.00259381 16.20113373 24.54971313 C16.17202986 17.78289756 16.11455272 11.01685332 16.0625 4.25 C4.8425 4.25 -6.3775 4.25 -17.9375 4.25 C-17.6075 3.26 -17.2775 2.27 -16.9375 1.25 C-11.28721673 -0.02795642 -5.76969493 0.02765582 0 0 Z " fill="#759461" transform="translate(365.9375,572.75)"/>
<path d="M0 0 C2.86546368 1.08092224 4.72781552 2.66481068 7.0703125 4.640625 C8.03710938 5.45015625 9.00390625 6.2596875 10 7.09375 C12.22354422 8.98854813 14.43375829 10.89831791 16.640625 12.8125 C27.56431899 23.70410225 27.56431899 23.70410225 40.61425781 30.11621094 C43.83768274 29.75642647 44.70005473 28.88621036 46.89453125 26.546875 C47.54615234 25.87011719 48.19777344 25.19335938 48.86914062 24.49609375 C49.53365234 23.78066406 50.19816406 23.06523437 50.8828125 22.328125 C52.21569001 20.91773984 53.55272193 19.51126534 54.89453125 18.109375 C55.48065186 17.48095703 56.06677246 16.85253906 56.6706543 16.20507812 C58.1953125 14.828125 58.1953125 14.828125 60.1953125 14.828125 C60.5975 13.8690625 60.5975 13.8690625 61.0078125 12.890625 C62.1953125 10.828125 62.1953125 10.828125 65.1953125 9.828125 C65.1953125 9.168125 65.1953125 8.508125 65.1953125 7.828125 C65.8553125 7.828125 66.5153125 7.828125 67.1953125 7.828125 C65.69369217 11.333896 63.66688139 13.61421947 60.984375 16.3046875 C59.73527344 17.55765625 59.73527344 17.55765625 58.4609375 18.8359375 C57.58953125 19.69960938 56.718125 20.56328125 55.8203125 21.453125 C54.52480469 22.76023437 54.52480469 22.76023437 53.203125 24.09375 C52.3678125 24.92648437 51.5325 25.75921875 50.671875 26.6171875 C49.90955566 27.37725098 49.14723633 28.13731445 48.36181641 28.92041016 C45.25380257 31.65717149 43.40390534 32.89650591 39.2265625 32.66015625 C35.93458852 31.7565603 34.28047176 30.71392064 31.6953125 28.515625 C30.83679688 27.79503906 29.97828125 27.07445312 29.09375 26.33203125 C28.13726562 25.50574219 27.18078125 24.67945313 26.1953125 23.828125 C25.08382697 22.87832828 23.97182479 21.92913591 22.859375 20.98046875 C20.48716036 18.95369343 18.12100162 16.9201003 15.7578125 14.8828125 C10.62410553 10.46681128 5.41143205 6.14623129 0.1953125 1.828125 C-0.4646875 2.488125 -1.1246875 3.148125 -1.8046875 3.828125 C-2.7946875 3.498125 -3.7846875 3.168125 -4.8046875 2.828125 C-2.36220962 -0.22497235 -2.36220962 -0.22497235 0 0 Z " fill="#73925E" transform="translate(415.8046875,488.171875)"/>
<path d="M0 0 C11.2584889 1.71324831 19.64178212 13.47562731 27.34765625 21.14453125 C27.81163755 21.60568518 28.27561886 22.0668391 28.7536602 22.54196739 C31.19543323 24.9689397 33.63447022 27.39861973 36.07104492 29.83081055 C38.57935872 32.33357771 41.09687254 34.82688159 43.61647892 37.31827259 C46.03340772 39.71215108 48.43979969 42.11652816 50.84765625 44.51953125 C51.75169693 45.41122513 52.65573761 46.30291901 53.58717346 47.22163391 C54.82998329 48.46894539 54.82998329 48.46894539 56.09790039 49.74145508 C56.82940811 50.46931717 57.56091583 51.19717926 58.31459045 51.94709778 C60.02861586 54.03485537 60.60980509 55.35850717 61 58 C60.34 58 59.68 58 59 58 C58.08119418 56.57074651 57.16436645 55.14018088 56.2578125 53.703125 C54.47240462 51.28561619 52.2624353 49.59159487 49.94023132 47.70698547 C48.00440978 46.00387965 46.38111428 44.23090635 44.71411133 42.26635742 C39.34685141 36.04940639 33.55683546 30.25701835 27.77661133 24.42651367 C26.38382858 23.01712886 24.9964388 21.60239413 23.61450195 20.18237305 C13.21204318 9.12000281 13.21204318 9.12000281 0 2 C0 1.34 0 0.68 0 0 Z " fill="#9DB088" transform="translate(683,350)"/>
<path d="M0 0 C0.66 0.33 1.32 0.66 2 1 C2.33 17.83 2.66 34.66 3 52 C1.515 52.495 1.515 52.495 0 53 C-0.74732241 40.78928562 -1.10672455 28.60965136 -1.125 16.375 C-1.12951172 15.10052002 -1.13402344 13.82604004 -1.13867188 12.51293945 C-1.13673828 11.32015381 -1.13480469 10.12736816 -1.1328125 8.8984375 C-1.13112061 7.30008057 -1.13112061 7.30008057 -1.12939453 5.66943359 C-1 3 -1 3 0 0 Z " fill="#173729" transform="translate(457,448)"/>
<path d="M0 0 C0.33 0 0.66 0 1 0 C1.0462955 7.26692328 1.08185493 14.53381488 1.10362434 21.80085564 C1.11407142 25.17506994 1.12824725 28.54918352 1.15087891 31.92333984 C1.17504885 35.80048318 1.18646511 39.67748277 1.1953125 43.5546875 C1.20563507 44.76929657 1.21595764 45.98390564 1.22659302 47.23532104 C1.22674408 48.35633209 1.22689514 49.47734314 1.22705078 50.63232422 C1.231492 51.62271698 1.23593323 52.61310974 1.24050903 53.6335144 C1 56 1 56 -1 58 C-2.59798629 38.59588073 -2.72929283 19.29999932 0 0 Z " fill="#143427" transform="translate(458,366)"/>
<path d="M0 0 C0.66 0 1.32 0 2 0 C2.04934399 5.94481181 2.08569282 11.88950509 2.10986328 17.83447266 C2.11993671 19.85793127 2.13359595 21.88137528 2.15087891 23.90478516 C2.17506847 26.80895589 2.18646949 29.71293461 2.1953125 32.6171875 C2.20563507 33.52556366 2.21595764 34.43393982 2.22659302 35.36984253 C2.22674408 36.21056305 2.22689514 37.05128357 2.22705078 37.91748047 C2.231492 38.65916473 2.23593323 39.400849 2.24050903 40.16500854 C2 42 2 42 0 44 C-1.79252409 42.20747591 -1.12851914 39.78552523 -1.13894653 37.39936829 C-1.1369223 36.61402206 -1.13489807 35.82867584 -1.1328125 35.01953125 C-1.13376923 34.21392258 -1.13472595 33.4083139 -1.13571167 32.57829285 C-1.13639384 30.86754275 -1.134537 29.15679008 -1.13037109 27.44604492 C-1.12505797 24.8409228 -1.13029673 22.23597584 -1.13671875 19.63085938 C-1.13605729 17.96874962 -1.13477474 16.30663998 -1.1328125 14.64453125 C-1.13483673 13.86930618 -1.13686096 13.09408112 -1.13894653 12.29536438 C-1.1209496 8.08704386 -0.82877792 4.14594715 0 0 Z " fill="#1B3A2C" transform="translate(457,321)"/>
<path d="M0 0 C1.7315332 -0.01160156 1.7315332 -0.01160156 3.49804688 -0.0234375 C10.38183161 -0.00781916 16.75383343 0.57932121 23.4375 2.25 C23.4375 2.58 23.4375 2.91 23.4375 3.25 C7.5975 3.25 -8.2425 3.25 -24.5625 3.25 C-24.5625 2.92 -24.5625 2.59 -24.5625 2.25 C-16.31683439 0.41786172 -8.43118789 -0.05668025 0 0 Z " fill="#73915F" transform="translate(648.5625,518.75)"/>
<path d="M0 0 C4.67849444 7.01774166 3.0909895 18.62598081 3.125 26.9375 C3.13200928 28.12569336 3.13200928 28.12569336 3.13916016 29.33789062 C3.1054497 41.62924237 3.1054497 41.62924237 0.4375 44.9375 C-0.036875 45.288125 -0.51125 45.63875 -1 46 C-1.99 45.67 -2.98 45.34 -4 45 C-3.01 44.34 -2.02 43.68 -1 43 C-0.52606438 41.07097172 -0.52606438 41.07097172 -0.56762695 38.82568359 C-0.54783279 37.96494232 -0.52803864 37.10420105 -0.50764465 36.21737671 C-0.50125473 35.28712677 -0.49486481 34.35687683 -0.48828125 33.3984375 C-0.47033005 32.44683746 -0.45237885 31.49523743 -0.43388367 30.51480103 C-0.37959751 27.4682461 -0.34582641 24.42184943 -0.3125 21.375 C-0.27934308 19.31247788 -0.24485496 17.24997671 -0.20898438 15.1875 C-0.12386056 10.1251139 -0.05713696 5.06277622 0 0 Z " fill="#6F8E5B" transform="translate(383,597)"/>
<path d="M0 0 C0.33 0 0.66 0 1 0 C2.4683046 12.95254417 2.09470779 25.98714988 2 39 C0.515 39.495 0.515 39.495 -1 40 C-1.02464775 34.46411467 -1.04283496 28.928261 -1.05493164 23.39233398 C-1.05997244 21.5075627 -1.06680498 19.62279535 -1.07543945 17.73803711 C-1.08751617 15.03498364 -1.09323068 12.33198169 -1.09765625 9.62890625 C-1.10281754 8.78099014 -1.10797882 7.93307404 -1.11329651 7.0594635 C-1.11349195 5.03928932 -1.06206211 3.01922066 -1 1 C-0.67 0.67 -0.34 0.34 0 0 Z " fill="#143424" transform="translate(552,338)"/>
<path d="M0 0 C4.8318516 1.51108468 7.92541471 4.25918914 11.625 7.5625 C12.85846369 8.64296832 14.09285112 9.72238295 15.328125 10.80078125 C15.94107422 11.33783691 16.55402344 11.87489258 17.18554688 12.42822266 C21.37166651 16.05446568 25.69289821 19.51915856 30 23 C30.33 20.36 30.66 17.72 31 15 C31.33 15 31.66 15 32 15 C32.495 19.455 32.495 19.455 33 24 C29 25 29 25 27.1328125 23.98828125 C26.47023438 23.43527344 25.80765625 22.88226563 25.125 22.3125 C24.34769531 21.673125 23.57039063 21.03375 22.76953125 20.375 C20.68215671 18.58498065 18.59607484 16.79352884 16.51171875 15 C15.90118652 14.47494873 15.2906543 13.94989746 14.66162109 13.40893555 C13.45332741 12.36575725 12.24903216 11.31792473 11.04931641 10.26489258 C8.3204856 7.88870709 5.63311828 5.70144308 2.57421875 3.76171875 C1.72472656 3.18035156 0.87523437 2.59898437 0 2 C0 1.34 0 0.68 0 0 Z " fill="#728F5F" transform="translate(425,478)"/>
<path d="M0 0 C-1.66463038 4.28642324 -4.79075837 7.08617217 -8 10.25 C-8.5465625 10.80429687 -9.093125 11.35859375 -9.65625 11.9296875 C-13.7466133 16 -13.7466133 16 -16 16 C-16.2475 16.5775 -16.495 17.155 -16.75 17.75 C-18.16683317 20.3002997 -19.87627537 22.01785701 -22 24 C-22.99 23.67 -23.98 23.34 -25 23 C-21.76743024 19.71809541 -18.52842394 16.44273543 -15.28320312 13.17333984 C-14.17950702 12.05956877 -13.07761027 10.94401168 -11.97753906 9.82666016 C-10.39854926 8.22348763 -8.81325886 6.62679089 -7.2265625 5.03125 C-6.73378815 4.52815308 -6.24101379 4.02505615 -5.73330688 3.50671387 C-2.22774341 0 -2.22774341 0 0 0 Z " fill="#779562" transform="translate(530,450)"/>
<path d="M0 0 C2.26783513 1.48440117 4.02170272 3.11590735 6 5 C5.67 5.66 5.34 6.32 5 7 C3.9790625 5.9790625 3.9790625 5.9790625 2.9375 4.9375 C0.1299707 2.6988935 0.1299707 2.6988935 -3.28125 3 C-8.06353576 4.28599281 -10.17527011 6.48100545 -13.4375 10.0625 C-13.97826172 10.63033203 -14.51902344 11.19816406 -15.07617188 11.78320312 C-16.39826737 13.17549838 -17.70115676 14.5859884 -19 16 C-19.99 15.67 -20.98 15.34 -22 15 C-20.08643227 13.05935348 -18.16932062 11.122443 -16.25 9.1875 C-15.71117187 8.64029297 -15.17234375 8.09308594 -14.6171875 7.52929688 C-6.15473358 -0.98475737 -6.15473358 -0.98475737 0 0 Z " fill="#72905E" transform="translate(418,471)"/>
<path d="M0 0 C0.56976563 0.65226563 1.13953125 1.30453125 1.7265625 1.9765625 C6.75451865 5.0845354 11.58684745 4.50169919 17.375 4.375 C19.04175781 4.37306641 19.04175781 4.37306641 20.7421875 4.37109375 C26.52482577 4.30913691 31.54686657 3.96438524 37 2 C36.33984375 3.953125 36.33984375 3.953125 35 6 C32.56640625 6.609375 32.56640625 6.609375 29.5625 6.75 C28.48484375 6.80414062 27.4071875 6.85828125 26.296875 6.9140625 C24.66492188 6.95660156 24.66492188 6.95660156 23 7 C22.03578125 7.02835938 21.0715625 7.05671875 20.078125 7.0859375 C4.62045196 7.30426622 4.62045196 7.30426622 0.4375 3.9375 C-0.036875 3.298125 -0.51125 2.65875 -1 2 C-0.67 1.34 -0.34 0.68 0 0 Z " fill="#6E8C58" transform="translate(458,638)"/>
<path d="M0 0 C0.68383255 0.00424484 1.3676651 0.00848969 2.07221985 0.01286316 C4.25297686 0.02963522 6.43280434 0.06728218 8.61328125 0.10546875 C10.0930856 0.12051761 11.57290445 0.13420567 13.05273438 0.14648438 C16.67738461 0.17953306 20.30149219 0.23130429 23.92578125 0.29296875 C23.92578125 0.62296875 23.92578125 0.95296875 23.92578125 1.29296875 C23.13405518 1.3180249 22.3423291 1.34308105 21.52661133 1.36889648 C17.93034762 1.48512604 14.33432845 1.60773051 10.73828125 1.73046875 C8.86946289 1.78944336 8.86946289 1.78944336 6.96289062 1.84960938 C5.76083984 1.89150391 4.55878906 1.93339844 3.3203125 1.9765625 C2.21534424 2.01322021 1.11037598 2.04987793 -0.02807617 2.08764648 C-2.80014847 2.27449531 -5.36964748 2.67459241 -8.07421875 3.29296875 C-9.31181698 7.00576344 -9.43030772 10.60603221 -9.63671875 14.48046875 C-9.67990234 15.23005859 -9.72308594 15.97964844 -9.76757812 16.75195312 C-9.8734456 18.5987525 -9.97431635 20.44583709 -10.07421875 22.29296875 C-10.40421875 22.29296875 -10.73421875 22.29296875 -11.07421875 22.29296875 C-11.29819608 20.25295902 -11.50270412 18.21080686 -11.69921875 16.16796875 C-11.81523437 15.03101563 -11.93125 13.8940625 -12.05078125 12.72265625 C-12.07991318 8.45968407 -11.37077641 5.18488737 -8.94067383 1.63891602 C-6.04851792 -0.44668967 -3.5189367 -0.04308902 0 0 Z " fill="#5F7D4B" transform="translate(523.07421875,491.70703125)"/>
<path d="M0 0 C0.99 0.33 1.98 0.66 3 1 C-0.84840153 4.97254351 -4.92826807 8.61007318 -9.109375 12.23046875 C-11.07908003 13.86863988 -11.07908003 13.86863988 -12 16 C-12.66 16 -13.32 16 -14 16 C-14 16.66 -14 17.32 -14 18 C-15.96147874 19.38938077 -17.96166576 20.7260411 -20 22 C-18.1506372 18.01675704 -16.20025097 14.94865197 -12.7265625 12.203125 C-9.84769476 9.87693388 -7.28647548 7.38362848 -4.6875 4.75 C-3.80449219 3.85796875 -2.92148437 2.9659375 -2.01171875 2.046875 C-1.34785156 1.37140625 -0.68398438 0.6959375 0 0 Z " fill="#708E5B" transform="translate(383,499)"/>
<path d="M0 0 C0.33 0 0.66 0 1 0 C1.02718316 2.85423192 1.04692705 5.70820015 1.0625 8.5625 C1.07087891 9.36236328 1.07925781 10.16222656 1.08789062 10.98632812 C1.10742247 15.77163104 0.80437018 20.28145051 0 25 C-2.66788579 22.33211421 -2.26148845 20.29944656 -2.2734375 16.66992188 C-2.26570312 15.85072266 -2.25796875 15.03152344 -2.25 14.1875 C-2.25773438 13.37990234 -2.26546875 12.57230469 -2.2734375 11.74023438 C-2.25915942 7.38185097 -2.02764323 3.96677823 0 0 Z " fill="#183626" transform="translate(553,311)"/>
<path d="M0 0 C0.33 0 0.66 0 1 0 C1.1139891 11.05694276 0.91050683 21.97636372 0 33 C-0.33 33 -0.66 33 -1 33 C-1.1946838 30.22949974 -1.38102792 27.45886998 -1.5625 24.6875 C-1.61857422 23.90181641 -1.67464844 23.11613281 -1.73242188 22.30664062 C-1.78076172 21.54931641 -1.82910156 20.79199219 -1.87890625 20.01171875 C-1.9260376 19.31522217 -1.97316895 18.61872559 -2.02172852 17.90112305 C-2 16 -2 16 -1 13 C-1.185625 11.906875 -1.37125 10.81375 -1.5625 9.6875 C-2.02815545 5.76268976 -1.49518349 3.60603078 0 0 Z " fill="#2E4839" transform="translate(307,255)"/>
<path d="M0 0 C0.69311279 0.32145996 1.38622559 0.64291992 2.1003418 0.97412109 C5.3391539 2.11999029 7.96506423 2.31654211 11.39453125 2.4140625 C12.59658203 2.45273437 13.79863281 2.49140625 15.03710938 2.53125 C16.90592773 2.57765625 16.90592773 2.57765625 18.8125 2.625 C20.07771484 2.66367187 21.34292969 2.70234375 22.64648438 2.7421875 C25.76417851 2.83630657 28.88186914 2.92194361 32 3 C30 5 30 5 26.18359375 5.23046875 C24.60149941 5.22812218 23.01938856 5.21312403 21.4375 5.1875 C20.6220874 5.17960449 19.8066748 5.17170898 18.96655273 5.16357422 C4.43607873 4.95738582 4.43607873 4.95738582 0 2 C0 1.34 0 0.68 0 0 Z " fill="#6D8A58" transform="translate(346,640)"/>
<path d="M0 0 C0.33 0.99 0.66 1.98 1 3 C0.01 3.33 -0.98 3.66 -2 4 C-2.68539349 5.32380436 -3.35012508 6.65840214 -4 8 C-5.65625 9.59765625 -5.65625 9.59765625 -7.5 11.0625 C-9.93664912 13.00872186 -11.22262121 14.33393182 -13 17 C-13.99 16.67 -14.98 16.34 -16 16 C-10.72 10.72 -5.44 5.44 0 0 Z " fill="#74935F" transform="translate(403,499)"/>
<path d="M0 0 C0.66 0.33 1.32 0.66 2 1 C2.34153937 2.66500443 2.67449498 4.33178677 3 6 C3.66 6.66 4.32 7.32 5 8 C8.18819752 7.66083005 10.95781049 7.01406317 14 6 C13 9 13 9 11 10 C7.42451547 10.26485071 4.86709657 10.43354828 1.625 8.8125 C-0.39820147 6.55585221 -0.76941607 4.99759103 -1 2 C-0.67 1.34 -0.34 0.68 0 0 Z " fill="#668451" transform="translate(327,556)"/>
<path d="M0 0 C10.56 0 21.12 0 32 0 C32 0.33 32 0.66 32 1 C21.44 1 10.88 1 0 1 C0 0.67 0 0.34 0 0 Z " fill="#B6C9A0" transform="translate(664,568)"/>
<path d="M0 0 C0.33 0 0.66 0 1 0 C1.33 4.95 1.66 9.9 2 15 C1.01 15.33 0.02 15.66 -1 16 C-1.02701408 13.89590361 -1.04640223 11.79170822 -1.0625 9.6875 C-1.07410156 8.51574219 -1.08570313 7.34398437 -1.09765625 6.13671875 C-1 3 -1 3 0 0 Z " fill="#103324" transform="translate(458,485)"/>
<path d="M0 0 C0 0.66 0 1.32 0 2 C-0.99 2.66 -1.98 3.32 -3 4 C-4.2188121 7.55672179 -4.2188121 7.55672179 -5 11 C-5.66 10.67 -6.32 10.34 -7 10 C-6.67506385 6.4257023 -6.36129314 4.44287547 -4.0625 1.625 C-2 0 -2 0 0 0 Z " fill="#7F9C69" transform="translate(621,419)"/>
<path d="M0 0 C3.3125 0.1875 3.3125 0.1875 7 1 C9.34885769 3.87924492 10 5.27472933 10 9 C9.34 9 8.68 9 8 9 C7.690625 7.8553125 7.690625 7.8553125 7.375 6.6875 C5.57929296 3.17770897 3.56863688 2.47400219 0 1 C0 0.67 0 0.34 0 0 Z " fill="#759260" transform="translate(674,520)"/>
<path d="M0 0 C0 3 0 3 -1.2421875 4.60546875 C-1.78101563 5.12753906 -2.31984375 5.64960938 -2.875 6.1875 C-3.40867187 6.71730469 -3.94234375 7.24710937 -4.4921875 7.79296875 C-6 9 -6 9 -8 9 C-6.4169423 4.7257442 -3.49431596 2.73468206 0 0 Z " fill="#71905C" transform="translate(394,489)"/>
<path d="M0 0 C2.1640625 -0.29296875 2.1640625 -0.29296875 4.625 -0.1875 C5.44226563 -0.16042969 6.25953125 -0.13335937 7.1015625 -0.10546875 C8.04128906 -0.05326172 8.04128906 -0.05326172 9 0 C6.28817788 2.60334924 5.10866187 2.99456691 1.25 3.1875 C0.1775 3.125625 -0.895 3.06375 -2 3 C-1.34 2.01 -0.68 1.02 0 0 Z " fill="#1A3828" transform="translate(561,303)"/>
<path d="M0 0 C0.66 0 1.32 0 2 0 C2 0.66 2 1.32 2 2 C1.01 2.66 0.02 3.32 -1 4 C-2.2188121 7.55672179 -2.2188121 7.55672179 -3 11 C-4.1875 9.3125 -4.1875 9.3125 -5 7 C-3.64520503 4.15493056 -2.22568901 2.22568901 0 0 Z " fill="#73905D" transform="translate(619,520)"/>
<path d="M0 0 C1.32 0.66 2.64 1.32 4 2 C4 2.66 4 3.32 4 4 C4.99 4.33 5.98 4.66 7 5 C7 5.66 7 6.32 7 7 C4.33333333 5.66666667 1.66666667 4.33333333 -1 3 C-0.67 2.01 -0.34 1.02 0 0 Z " fill="#789764" transform="translate(537,441)"/>
<path d="M0 0 C0.99 0 1.98 0 3 0 C3 2.97 3 5.94 3 9 C2.01 9.33 1.02 9.66 0 10 C0 6.7 0 3.4 0 0 Z " fill="#1A3B29" transform="translate(551,368)"/>
<path d="M0 0 C3.79235994 1.48985569 5.80565887 3.58658047 8 7 C7.75 9.3125 7.75 9.3125 7 11 C7 10.01 7 9.02 7 8 C6.34 8 5.68 8 5 8 C4.731875 7.401875 4.46375 6.80375 4.1875 6.1875 C3.01373338 4.02529834 1.76393777 2.68375878 0 1 C0 0.67 0 0.34 0 0 Z " fill="#132F21" transform="translate(450,305)"/>
<path d="M0 0 C0.33 0.66 0.66 1.32 1 2 C-1.84936103 5.00765886 -4.23511958 7.27845212 -8 9 C-7.04270084 7.87411986 -6.08412105 6.7493285 -5.125 5.625 C-4.59132813 4.99851562 -4.05765625 4.37203125 -3.5078125 3.7265625 C-2.38567993 2.44163349 -1.20628025 1.20628025 0 0 Z " fill="#9AC07B" transform="translate(477,482)"/>
<path d="M0 0 C0.33 0.99 0.66 1.98 1 3 C-1.31 4.98 -3.62 6.96 -6 9 C-6.66 8.67 -7.32 8.34 -8 8 C-5.36 5.36 -2.72 2.72 0 0 Z " fill="#9AC07A" transform="translate(492,467)"/>
<path d="M0 0 C0.99 0 1.98 0 3 0 C2.42655063 2.86724686 2.1385485 3.8614515 0 6 C-3.125 6.125 -3.125 6.125 -6 6 C-2.25 4 -2.25 4 0 4 C0 2.68 0 1.36 0 0 Z " fill="#75905C" transform="translate(704,462)"/>
<path d="M0 0 C1.1875 1.625 1.1875 1.625 2 4 C0.8125 7.1875 0.8125 7.1875 -1 10 C-1.99 10.33 -2.98 10.66 -4 11 C-3.71125 10.484375 -3.4225 9.96875 -3.125 9.4375 C-1.71219973 6.37643275 -0.8751483 3.25055082 0 0 Z " fill="#718E5B" transform="translate(669,424)"/>
<path d="M0 0 C0.66 0.33 1.32 0.66 2 1 C2.72886734 3.7696959 3 6.12862585 3 9 C0 7 0 7 -0.75 4.5 C-1 2 -1 2 0 0 Z " fill="#73905E" transform="translate(327,556)"/>
<path d="M0 0 C-0.28875 0.556875 -0.5775 1.11375 -0.875 1.6875 C-2.0413253 4.08494645 -3.0339881 6.51596939 -4 9 C-4.33 9 -4.66 9 -5 9 C-5.36666667 3.5 -5.36666667 3.5 -3.625 1.125 C-2 0 -2 0 0 0 Z " fill="#74925E" transform="translate(620,486)"/>
<path d="M0 0 C1.9375 0.625 1.9375 0.625 4 2 C4.75 5.125 4.75 5.125 5 8 C4.34 8 3.68 8 3 8 C1.92474806 5.34771188 0.90543849 2.71631546 0 0 Z " fill="#75905E" transform="translate(703,453)"/>
<path d="M0 0 C2.64 0.33 5.28 0.66 8 1 C7.01 2.485 7.01 2.485 6 4 C4.35 3.67 2.7 3.34 1 3 C0.67 2.01 0.34 1.02 0 0 Z " fill="#A9BC93" transform="translate(594,567)"/>
<path d="M0 0 C3.3 0 6.6 0 10 0 C10 0.33 10 0.66 10 1 C6.7 1 3.4 1 0 1 C0 0.67 0 0.34 0 0 Z " fill="#B6C99F" transform="translate(653,568)"/>
<path d="M0 0 C1.98 0 3.96 0 6 0 C6 0.33 6 0.66 6 1 C4.02 1 2.04 1 0 1 C0 0.67 0 0.34 0 0 Z " fill="#B7CAA0" transform="translate(645,568)"/>
<path d="M0 0 C1.98 0 3.96 0 6 0 C6 0.33 6 0.66 6 1 C4.02 1 2.04 1 0 1 C0 0.67 0 0.34 0 0 Z " fill="#B8C9A0" transform="translate(621,568)"/>
<path d="M0 0 C1.65 0 3.3 0 5 0 C5 0.33 5 0.66 5 1 C3.35 1 1.7 1 0 1 C0 0.67 0 0.34 0 0 Z " fill="#B7CAA1" transform="translate(638,568)"/>
<path d="M0 0 C1.65 0 3.3 0 5 0 C5 0.33 5 0.66 5 1 C3.35 1 1.7 1 0 1 C0 0.67 0 0.34 0 0 Z " fill="#B9C9A1" transform="translate(629,568)"/>
<path d="M0 0 C1.65 0 3.3 0 5 0 C5 0.33 5 0.66 5 1 C3.35 1 1.7 1 0 1 C0 0.67 0 0.34 0 0 Z " fill="#B8CAA1" transform="translate(615,568)"/>
<path d="M0 0 C1.65 0 3.3 0 5 0 C5 0.33 5 0.66 5 1 C3.35 1 1.7 1 0 1 C0 0.67 0 0.34 0 0 Z " fill="#9EB885" transform="translate(680,470)"/>
<path d="M0 0 C4 1 4 1 4 1 Z " fill="#B7C9A0" transform="translate(604,568)"/>
<path d="M0 0 C4 1 4 1 4 1 Z " fill="#9EB885" transform="translate(686,470)"/>
<path d="M0 0 C3 1 3 1 3 1 Z " fill="#B7C9A0" transform="translate(708,568)"/>
<path d="" fill="#B5CAA1" transform="translate(0,0)"/>
<path d="" fill="#B1C79D" transform="translate(0,0)"/>
<path d="" fill="#B1C59D" transform="translate(0,0)"/>
<path d="" fill="#B2C79B" transform="translate(0,0)"/>
<path d="M0 0 C3 1 3 1 3 1 Z " fill="#9CB884" transform="translate(664,470)"/>
<path d="" fill="#AEC39A" transform="translate(0,0)"/>
<path d="" fill="#A7BC94" transform="translate(0,0)"/>
<path d="M0 0 C0.33 0.66 0.66 1.32 1 2 C0.34 1.67 -0.32 1.34 -1 1 C-0.67 0.67 -0.34 0.34 0 0 Z " fill="#3C5B47" transform="translate(449,308)"/>
<path d="M0 0 C0.33 0.66 0.66 1.32 1 2 C0.34 1.67 -0.32 1.34 -1 1 C-0.67 0.67 -0.34 0.34 0 0 Z " fill="#3B5947" transform="translate(305,296)"/>
<path d="M0 0 C2 1 2 1 2 1 Z " fill="#90AB76" transform="translate(545,645)"/>
<path d="M0 0 C2 1 2 1 2 1 Z " fill="#B4C8A0" transform="translate(605,591)"/>
<path d="M0 0 C2 1 2 1 2 1 Z " fill="#B4C79F" transform="translate(591,589)"/>
<path d="" fill="#B6CAA2" transform="translate(0,0)"/>
<path d="" fill="#A2BB8C" transform="translate(0,0)"/>
<path d="M0 0 C2 1 2 1 2 1 Z " fill="#9CB883" transform="translate(643,470)"/>
<path d="" fill="#A6BD90" transform="translate(0,0)"/>
<path d="" fill="#B3C89F" transform="translate(0,0)"/>
<path d="" fill="#B6C9A0" transform="translate(0,0)"/>
<path d="" fill="#ABC096" transform="translate(0,0)"/>
<path d="" fill="#A8BE95" transform="translate(0,0)"/>
<path d="" fill="#A7BB93" transform="translate(0,0)"/>
<path d="M0 0 C2 1 2 1 2 1 Z " fill="#A9BD97" transform="translate(584,352)"/>
<path d="" fill="#395946" transform="translate(0,0)"/>
<path d="" fill="#375644" transform="translate(0,0)"/>
<path d="" fill="#535651" transform="translate(0,0)"/>
<path d="" fill="#8EAC76" transform="translate(0,0)"/>
<path d="" fill="#8CAA75" transform="translate(0,0)"/>
<path d="" fill="#8AA973" transform="translate(0,0)"/>
<path d="" fill="#8BA875" transform="translate(0,0)"/>
<path d="" fill="#8FAD76" transform="translate(0,0)"/>
<path d="" fill="#90AC78" transform="translate(0,0)"/>
<path d="" fill="#8CA775" transform="translate(0,0)"/>
<path d="" fill="#91AC76" transform="translate(0,0)"/>
<path d="" fill="#8CA876" transform="translate(0,0)"/>
<path d="" fill="#8CA676" transform="translate(0,0)"/>
<path d="" fill="#B1C49C" transform="translate(0,0)"/>
<path d="" fill="#B5C7A0" transform="translate(0,0)"/>
<path d="" fill="#B5C8A0" transform="translate(0,0)"/>
<path d="" fill="#B7C89E" transform="translate(0,0)"/>
<path d="" fill="#B6C9A1" transform="translate(0,0)"/>
<path d="" fill="#B5C6A0" transform="translate(0,0)"/>
<path d="" fill="#B4C69F" transform="translate(0,0)"/>
<path d="" fill="#B2C39D" transform="translate(0,0)"/>
<path d="" fill="#90AE7B" transform="translate(0,0)"/>
<path d="" fill="#90AD78" transform="translate(0,0)"/>
<path d="" fill="#92AF79" transform="translate(0,0)"/>
<path d="" fill="#B7C9A2" transform="translate(0,0)"/>
<path d="" fill="#B8C99F" transform="translate(0,0)"/>
<path d="" fill="#B7CAA1" transform="translate(0,0)"/>
<path d="" fill="#B5C99F" transform="translate(0,0)"/>
<path d="" fill="#B9CAA3" transform="translate(0,0)"/>
<path d="" fill="#B1C59A" transform="translate(0,0)"/>
<path d="" fill="#B0C69A" transform="translate(0,0)"/>
<path d="" fill="#91AF7A" transform="translate(0,0)"/>
<path d="" fill="#90AC7A" transform="translate(0,0)"/>
<path d="" fill="#B7C9A1" transform="translate(0,0)"/>
<path d="" fill="#B2C69D" transform="translate(0,0)"/>
<path d="" fill="#ABC193" transform="translate(0,0)"/>
<path d="" fill="#A9C092" transform="translate(0,0)"/>
<path d="" fill="#8EAC7B" transform="translate(0,0)"/>
<path d="" fill="#92AE7B" transform="translate(0,0)"/>
<path d="" fill="#B4C8A0" transform="translate(0,0)"/>
<path d="" fill="#9FB889" transform="translate(0,0)"/>
<path d="" fill="#A5BD91" transform="translate(0,0)"/>
<path d="" fill="#8DAB7B" transform="translate(0,0)"/>
<path d="" fill="#B4C89E" transform="translate(0,0)"/>
<path d="" fill="#90AD7A" transform="translate(0,0)"/>
<path d="" fill="#8EAD79" transform="translate(0,0)"/>
<path d="" fill="#92AE78" transform="translate(0,0)"/>
<path d="" fill="#B3C59C" transform="translate(0,0)"/>
<path d="" fill="#99B683" transform="translate(0,0)"/>
<path d="" fill="#A6BE91" transform="translate(0,0)"/>
<path d="" fill="#8BA874" transform="translate(0,0)"/>
<path d="" fill="#B3C69C" transform="translate(0,0)"/>
<path d="" fill="#8FB078" transform="translate(0,0)"/>
<path d="" fill="#90AE7A" transform="translate(0,0)"/>
<path d="" fill="#8FAD7A" transform="translate(0,0)"/>
<path d="" fill="#8EAE7C" transform="translate(0,0)"/>
<path d="" fill="#90AF7B" transform="translate(0,0)"/>
<path d="" fill="#A7BC8F" transform="translate(0,0)"/>
<path d="" fill="#A3BC8C" transform="translate(0,0)"/>
<path d="" fill="#A1B889" transform="translate(0,0)"/>
<path d="" fill="#9FBA88" transform="translate(0,0)"/>
<path d="" fill="#A0B986" transform="translate(0,0)"/>
<path d="" fill="#A0B786" transform="translate(0,0)"/>
<path d="" fill="#9FB684" transform="translate(0,0)"/>
<path d="" fill="#9FB885" transform="translate(0,0)"/>
<path d="" fill="#9FB985" transform="translate(0,0)"/>
<path d="" fill="#A0B986" transform="translate(0,0)"/>
<path d="" fill="#A2BA8A" transform="translate(0,0)"/>
<path d="" fill="#93AF7E" transform="translate(0,0)"/>
<path d="" fill="#B3C79D" transform="translate(0,0)"/>
<path d="" fill="#B2C79C" transform="translate(0,0)"/>
<path d="" fill="#87A577" transform="translate(0,0)"/>
<path d="" fill="#89A778" transform="translate(0,0)"/>
<path d="" fill="#9FB887" transform="translate(0,0)"/>
<path d="" fill="#A0B885" transform="translate(0,0)"/>
<path d="" fill="#9FB885" transform="translate(0,0)"/>
<path d="" fill="#9FB984" transform="translate(0,0)"/>
<path d="" fill="#9FBA85" transform="translate(0,0)"/>
<path d="" fill="#9DB783" transform="translate(0,0)"/>
<path d="" fill="#9DB784" transform="translate(0,0)"/>
<path d="" fill="#9EB984" transform="translate(0,0)"/>
<path d="" fill="#9DB983" transform="translate(0,0)"/>
<path d="" fill="#A0B984" transform="translate(0,0)"/>
<path d="" fill="#B2C69D" transform="translate(0,0)"/>
<path d="" fill="#B5C79E" transform="translate(0,0)"/>
<path d="" fill="#B1C69C" transform="translate(0,0)"/>
<path d="" fill="#8CA976" transform="translate(0,0)"/>
<path d="" fill="#8EAB75" transform="translate(0,0)"/>
<path d="" fill="#A7BE8F" transform="translate(0,0)"/>
<path d="" fill="#8DAA74" transform="translate(0,0)"/>
<path d="" fill="#94B17D" transform="translate(0,0)"/>
<path d="" fill="#B4C89F" transform="translate(0,0)"/>
<path d="" fill="#8BA772" transform="translate(0,0)"/>
<path d="" fill="#B4C89F" transform="translate(0,0)"/>
<path d="" fill="#B5C9A0" transform="translate(0,0)"/>
<path d="" fill="#9CB782" transform="translate(0,0)"/>
<path d="" fill="#A1BB85" transform="translate(0,0)"/>
<path d="" fill="#A0BA8A" transform="translate(0,0)"/>
<path d="" fill="#B6C9A0" transform="translate(0,0)"/>
<path d="" fill="#A8BF93" transform="translate(0,0)"/>
<path d="" fill="#B9CCA2" transform="translate(0,0)"/>
<path d="" fill="#B6CA9E" transform="translate(0,0)"/>
<path d="" fill="#B5C99F" transform="translate(0,0)"/>
<path d="" fill="#ADC198" transform="translate(0,0)"/>
<path d="" fill="#AABD90" transform="translate(0,0)"/>
<path d="" fill="#B4C9A2" transform="translate(0,0)"/>
<path d="" fill="#B7CAA2" transform="translate(0,0)"/>
<path d="" fill="#B9CCA4" transform="translate(0,0)"/>
<path d="" fill="#B4C8A2" transform="translate(0,0)"/>
<path d="" fill="#BBCCA4" transform="translate(0,0)"/>
<path d="" fill="#B9CAA2" transform="translate(0,0)"/>
<path d="" fill="#BACBA3" transform="translate(0,0)"/>
<path d="" fill="#3C5C48" transform="translate(0,0)"/>
<path d="" fill="#44634C" transform="translate(0,0)"/>
<path d="" fill="#3C5C47" transform="translate(0,0)"/>
<path d="" fill="#546B54" transform="translate(0,0)"/>
<path d="" fill="#3C5949" transform="translate(0,0)"/>
<path d="" fill="#3A5B47" transform="translate(0,0)"/>
<path d="" fill="#395A45" transform="translate(0,0)"/>
<path d="" fill="#385846" transform="translate(0,0)"/>
<path d="" fill="#3C5C48" transform="translate(0,0)"/>
<path d="" fill="#3B5B46" transform="translate(0,0)"/>
<path d="" fill="#3C5C46" transform="translate(0,0)"/>
<path d="" fill="#3B5B47" transform="translate(0,0)"/>
<path d="" fill="#3A5946" transform="translate(0,0)"/>
<path d="" fill="#3A5945" transform="translate(0,0)"/>
<path d="" fill="#3C5D49" transform="translate(0,0)"/>
<path d="" fill="#385A47" transform="translate(0,0)"/>
<path d="" fill="#3A5B48" transform="translate(0,0)"/>
<path d="" fill="#395E47" transform="translate(0,0)"/>
<path d="" fill="#3C5B47" transform="translate(0,0)"/>
<path d="" fill="#3A5745" transform="translate(0,0)"/>
<path d="" fill="#375844" transform="translate(0,0)"/>
<path d="" fill="#395644" transform="translate(0,0)"/>
<path d="" fill="#3A5845" transform="translate(0,0)"/>
</svg>
