<?xml version="1.0" encoding="UTF-8"?>
<svg version="1.1" xmlns="http://www.w3.org/2000/svg" width="500" height="500">
<path d="M0 0 C165 0 330 0 500 0 C500 165 500 330 500 500 C335 500 170 500 0 500 C0 335 0 170 0 0 Z " fill="#FEFEFE" transform="translate(0,0)"/>
<path d="M0 0 C1.85202401 -0.0083016 1.85202401 -0.0083016 3.74146265 -0.0167709 C7.16603662 -0.02803281 10.58972443 -0.0213401 14.01423085 -0.00703418 C17.70821025 0.00406687 21.40212475 -0.00786405 25.09609985 -0.01687622 C32.33123196 -0.03081624 39.56618965 -0.02324714 46.80131347 -0.00820064 C55.22394893 0.00864961 63.64654083 0.00545049 72.06918793 0.00170528 C87.09494292 -0.0041746 102.12061413 0.01000377 117.14634705 0.03465271 C131.73264201 0.05857814 146.31882505 0.06565548 160.90513611 0.05516052 C176.78330863 0.04375656 192.66142938 0.04181446 208.53960127 0.05625862 C210.23199204 0.05778449 211.92438282 0.05930484 213.61677361 0.06081963 C214.44949712 0.06157744 215.28222063 0.06233525 216.14017819 0.06311603 C222.01389108 0.06786256 227.88758087 0.06600484 233.76129341 0.06175423 C240.91670349 0.05683248 248.07200766 0.06278999 255.22739346 0.08264852 C258.87953021 0.09253401 262.53150555 0.09761218 266.18365097 0.08975601 C270.13856891 0.08142246 274.09320206 0.0962528 278.0480957 0.11352539 C279.78810233 0.10451032 279.78810233 0.10451032 281.56326061 0.09531313 C282.62012678 0.10375307 283.67699294 0.11219301 284.76588535 0.12088871 C285.67906043 0.12191784 286.5922355 0.12294697 287.53308254 0.12400728 C290.46942362 0.58027692 291.82639185 1.45804408 293.96055603 3.50120544 C294.9739137 6.54127844 295.09894448 8.62903201 295.12168884 11.81126404 C295.13129639 12.89604034 295.14090393 13.98081665 295.15080261 15.09846497 C295.15717743 16.85629807 295.15717743 16.85629807 295.16368103 18.64964294 C295.1693811 19.8543222 295.17508118 21.05900146 295.18095398 22.30018616 C295.19040608 24.85058208 295.19693879 27.40099023 295.20079041 29.95140076 C295.21049987 33.85363542 295.24152382 37.75534434 295.27305603 41.65745544 C295.27958568 44.13401481 295.2848363 46.61057795 295.28868103 49.08714294 C295.30102783 50.25498322 295.31337463 51.42282349 295.32609558 52.62605286 C295.32309448 53.71713348 295.32009338 54.80821411 295.31700134 55.93235779 C295.32064697 56.88927521 295.3242926 57.84619263 295.32804871 58.83210754 C294.88882065 62.02221924 293.8382232 63.90687278 291.96055603 66.50120544 C289.62327714 67.66984489 288.25106424 67.63080389 285.64686584 67.63923645 C284.74116852 67.64468979 283.83547119 67.65014313 282.90232849 67.65576172 C281.40772095 67.65732521 281.40772095 67.65732521 279.88291931 67.65892029 C278.31204056 67.66654137 278.31204056 67.66654137 276.70942688 67.67431641 C274.42969226 67.68503606 272.14994702 67.69364995 269.8701973 67.70043564 C266.26475211 67.71219551 262.65942829 67.73164042 259.05403137 67.7535553 C248.80107138 67.81527268 238.54812336 67.86925724 228.29502869 67.90257263 C222.02918541 67.92348365 215.76356238 67.95875879 209.4978447 68.00333023 C207.10642459 68.01751954 204.71496551 68.02621924 202.3235054 68.02938461 C198.98109543 68.03427712 195.639273 68.05739288 192.29698181 68.08470154 C191.30462524 68.0816954 190.31226868 68.07868927 189.2898407 68.07559204 C187.92283524 68.09223152 187.92283524 68.09223152 186.5282135 68.10920715 C185.34299701 68.11417237 185.34299701 68.11417237 184.13383675 68.1192379 C181.36896364 68.60518147 179.99790828 69.59457844 177.96055603 71.50120544 C177.01022483 74.35219904 176.82553438 76.15468156 176.80233765 79.11392212 C176.79254883 80.06043137 176.78276001 81.00694061 176.77267456 81.98213196 C176.7669191 83.01862885 176.76116364 84.05512573 176.75523376 85.12303162 C176.74533417 86.2158696 176.73543457 87.30870758 176.72523499 88.43466187 C176.69359435 92.05447711 176.66885233 95.67430549 176.64414978 99.29417419 C176.62358248 101.8009577 176.60258606 104.30773771 176.58117676 106.81451416 C176.53158252 112.74302303 176.48632314 118.671555 176.44315439 124.60011321 C176.38892111 132.01184177 176.32797439 139.42351254 176.26719666 146.83518982 C176.15958694 160.05715572 176.05796161 173.27916064 175.96055603 186.50120544 C174.68745291 185.56679009 173.41716803 184.62853433 172.14805603 183.68870544 C171.08651306 182.90559998 171.08651306 182.90559998 170.00352478 182.10667419 C168.1752421 180.66991668 166.56158915 179.18304781 164.96055603 177.50120544 C162.11860737 178.791187 160.0824366 180.13758131 157.90196228 182.36448669 C157.35088806 182.92200623 156.79981384 183.47952576 156.23204041 184.05393982 C155.66807556 184.63466248 155.10411072 185.21538513 154.52305603 185.81370544 C153.96295837 186.38282654 153.40286072 186.95194763 152.82579041 187.53831482 C151.72151518 188.66062955 150.61877769 189.78445965 149.51768494 190.90989685 C145.80640102 194.70264513 142.10227409 198.187831 137.96055603 201.50120544 C134.63148784 204.764373 131.39138272 208.11178117 128.15211487 211.46354675 C125.63846712 214.05785391 123.10848092 216.63598174 120.57774353 219.21360779 C119.24777821 220.57388849 117.92322814 221.93948458 116.60411072 223.31028748 C114.68756211 225.29974308 112.7521575 227.26905855 110.81211853 229.23558044 C110.2295932 229.84907349 109.64706787 230.46256653 109.04689026 231.09465027 C106.07370266 234.07022717 104.38679558 235.38515095 100.22862244 236.51731873 C95.79574464 236.49546231 93.75635078 234.55122929 90.71055603 231.62620544 C89.58251794 230.60701458 88.45359607 229.58880111 87.32383728 228.57151794 C86.76390076 228.05621521 86.20396423 227.54091248 85.62705994 227.00999451 C83.12450962 224.74428092 80.51980066 222.62808261 77.89805603 220.50120544 C77.04082947 219.79995544 76.18360291 219.09870544 75.30039978 218.37620544 C73.21689649 216.70662017 71.10755645 215.08790321 68.96055603 213.50120544 C65.09022242 215.07781906 62.50144683 217.70351026 59.62876892 220.63768005 C59.10952347 221.15984604 58.59027802 221.68201202 58.05529785 222.22000122 C56.93125883 223.35163622 55.80953588 224.48557544 54.68988228 225.62154961 C52.91605724 227.4209516 51.13601542 229.2139879 49.35421753 231.00549316 C44.93002015 235.45640438 40.51672886 239.91807999 36.10307312 244.37944031 C32.37228893 248.14972762 28.63741256 251.9158698 24.89701653 255.67662239 C23.14639068 257.44018109 21.40191644 259.20967255 19.65759277 260.97946167 C18.57927296 262.06504985 17.50066949 263.15035637 16.42173767 264.2353363 C15.94105835 264.72634827 15.46037903 265.21736023 14.96513367 265.72325134 C12.18502269 268.50422293 9.49690684 270.75684189 5.96055603 272.50120544 C2.77305603 272.37620544 2.77305603 272.37620544 -0.03944397 271.50120544 C-2.03944397 268.50120544 -2.03944397 268.50120544 -2.03001404 266.20864868 C-0.62762583 262.37561698 1.94988202 259.97883214 4.80967712 257.18211365 C5.41947922 256.57012115 6.02928131 255.95812866 6.65756226 255.32759094 C8.67355161 253.30929213 10.70345337 251.3056373 12.73399353 249.30198669 C14.13865314 247.90225108 15.54250181 246.50170123 16.9455719 245.10037231 C19.88696795 242.1666157 22.83470251 239.23944124 25.78770447 236.31736755 C29.57487021 232.56979458 33.35117004 228.81151418 37.12343407 225.04894733 C40.71926665 221.46308504 44.32003907 217.88220133 47.92149353 214.30198669 C48.6095747 213.61730127 49.29765587 212.93261585 50.00658798 212.22718239 C51.95258374 210.29275567 53.90200488 208.36185474 55.85264587 206.43211365 C56.42938553 205.8580629 57.00612518 205.28401215 57.6003418 204.69256592 C63.5839339 198.78933566 63.5839339 198.78933566 67.64805603 197.93870544 C71.92202055 198.664473 73.60443637 200.45273335 76.69883728 203.37620544 C79.15748452 205.68622979 81.71731108 207.81161223 84.33555603 209.93870544 C85.16829041 210.61804138 86.00102478 211.29737732 86.85899353 211.99729919 C89.61828871 214.2248914 92.38485767 216.44287875 95.15440369 218.65769958 C96.05454193 219.37760574 96.95468018 220.0975119 97.88209534 220.8392334 C98.56798737 221.38768417 99.25387939 221.93613495 99.96055603 222.50120544 C99.94675678 203.01258339 99.90456248 183.52422074 99.82846546 164.0357399 C99.79379674 154.98709156 99.76845748 145.93859585 99.76499939 136.88987732 C99.7619621 129.00396022 99.74150351 121.11831482 99.70003146 113.2325027 C99.67867814 109.0560627 99.66611265 104.8800092 99.67440224 100.7035141 C99.68192789 96.77331769 99.66618145 92.84390533 99.63249588 88.91385269 C99.62424446 87.47070502 99.6245341 86.02747963 99.63395882 84.58433914 C99.64554687 82.61516179 99.62353938 80.64587185 99.59979248 78.67680359 C99.5970271 77.57433918 99.59426172 76.47187477 99.59141254 75.33600235 C99.17698845 72.32124966 99.17698845 72.32124966 96.71038437 70.14598465 C93.88830608 68.45798994 92.55377836 68.00288947 89.32406616 68.00914001 C87.97195541 67.99694176 87.97195541 67.99694176 86.5925293 67.98449707 C85.1281266 68.00146889 85.1281266 68.00146889 83.63414001 68.01878357 C82.596203 68.01487106 81.55826599 68.01095856 80.48887634 68.00692749 C78.23865808 68.00095571 75.98840119 68.00411665 73.73820305 68.01535034 C70.17851147 68.03259173 66.61963341 68.02511565 63.05993652 68.01109314 C55.50592111 67.98573516 47.95209674 67.99126875 40.39805603 68.00120544 C31.64150509 68.0127181 22.88534815 68.0116545 14.12884712 67.97714233 C10.61878704 67.97003069 7.10934597 67.98674761 3.59933472 68.0042572 C1.45207889 67.99855135 -0.69517438 67.99173506 -2.84242249 67.98362732 C-3.82071518 67.99494186 -4.79900787 68.00625641 -5.8069458 68.01791382 C-12.32454702 67.95892985 -12.32454702 67.95892985 -15.64341736 65.83396912 C-17.38462957 62.92439951 -17.55245556 61.08101025 -17.57289124 57.69456482 C-17.58872757 56.52655334 -17.6045639 55.35854187 -17.62088013 54.15513611 C-17.61592026 52.89777649 -17.61096039 51.64041687 -17.60585022 50.34495544 C-17.6120488 49.05053528 -17.61824738 47.75611511 -17.62463379 46.42247009 C-17.63503118 43.68535046 -17.63048652 40.94875094 -17.61585999 38.21165466 C-17.59866433 34.70730154 -17.62217647 31.20458687 -17.65734959 27.70041656 C-17.68461277 24.35266596 -17.67458845 21.00531201 -17.66835022 17.65745544 C-17.68160843 16.40009583 -17.69486664 15.14273621 -17.70852661 13.84727478 C-17.6959935 12.67926331 -17.68346039 11.51125183 -17.67054749 10.30784607 C-17.66958572 9.28066467 -17.66862396 8.25348328 -17.66763306 7.19517517 C-17.03944397 4.50120544 -17.03944397 4.50120544 -15.2526474 2.36415768 C-10.3131932 -0.49964084 -5.61327379 -0.04656828 0 0 Z " fill="#29503B" transform="translate(99.03944396972656,83.49879455566406)"/>
<path d="M0 0 C0.6643808 -0.00525696 1.3287616 -0.01051392 2.01327515 -0.01593018 C4.18674961 -0.02902273 6.35947843 -0.02043221 8.53295898 -0.01025391 C10.05557901 -0.01227751 11.57819809 -0.01519133 13.10081482 -0.01895142 C16.28231083 -0.02335998 19.46355314 -0.01699048 22.64501953 -0.00292969 C26.71255171 0.01417619 30.77949054 0.00430322 34.84700108 -0.01364708 C37.98781263 -0.02451237 41.12848459 -0.0210263 44.26930046 -0.0132637 C45.76873788 -0.01127003 47.26818819 -0.01369158 48.76761055 -0.02070236 C50.86624639 -0.02836417 52.96393435 -0.01664895 55.0625 0 C56.25384048 0.00238678 57.44518097 0.00477356 58.67262268 0.00723267 C71.54869288 1.49638113 82.70633287 16.94160504 91.4284668 25.66479492 C93.48524925 27.71935995 95.5499508 29.76574981 97.61499023 31.81201172 C98.93058202 33.12467423 100.24570375 34.43780806 101.56030273 35.75146484 C102.174823 36.35879959 102.78934326 36.96613434 103.42248535 37.59187317 C103.99067993 38.16314438 104.55887451 38.73441559 105.14428711 39.32299805 C105.64263062 39.81991653 106.14097412 40.31683502 106.65441895 40.82881165 C109.52879653 44.2447924 110.21799439 47.12681242 110.2407074 51.5473938 C110.25068253 52.59021011 110.26065765 53.63302643 110.27093506 54.70744324 C110.27159973 55.846194 110.2722644 56.98494476 110.27294922 58.15820312 C110.28127274 59.36192062 110.28959625 60.56563812 110.298172 61.80583191 C110.31814416 65.10581919 110.32891431 68.40555408 110.33399844 71.70558023 C110.33764605 73.77075066 110.34388841 75.83589698 110.35099983 77.9010582 C110.375495 85.1161785 110.38854496 92.33122698 110.39208984 99.54638672 C110.3957183 106.25385475 110.42556331 112.96086328 110.46749443 119.66819108 C110.50229619 125.43909668 110.51764003 131.20985086 110.51833588 136.98086059 C110.51912579 140.42198386 110.52772961 143.8626396 110.55633354 147.30365372 C110.58328778 151.15010358 110.57840789 154.99529974 110.56591797 158.84179688 C110.58075226 159.96840225 110.59558655 161.09500763 110.61087036 162.25575256 C110.54264626 169.66072368 109.08933816 175.17512504 104.96655273 181.38818359 C102.46655273 183.82568359 102.46655273 183.82568359 99.96655273 185.38818359 C99.29252411 185.90740387 98.61849548 186.42662415 97.92404175 186.96157837 C93.66219482 189.01736727 89.82088495 188.80705995 85.14672852 188.77636719 C84.16237823 188.78162415 83.17802795 188.7868811 82.16384888 188.79229736 C78.91302576 188.80549023 75.66269327 188.79676021 72.41186523 188.78662109 C70.14891465 188.78864235 67.88596471 188.79155422 65.62301636 188.7953186 C60.88020628 188.79974127 56.13756575 188.79331378 51.39477539 188.77929688 C45.32299831 188.76222477 39.25161964 188.77203427 33.17985725 188.79001427 C28.50606298 188.80087021 23.83236267 188.79739707 19.15856552 188.78963089 C16.92031685 188.78763289 14.68205958 188.79007409 12.44382095 188.79706955 C9.31070723 188.80471144 6.17823234 188.79304008 3.04516602 188.77636719 C2.12441284 188.78243988 1.20365967 188.78851257 0.25500488 188.79476929 C-8.13458212 188.71230573 -13.95150783 186.47012303 -20.03344727 180.38818359 C-24.92275332 173.01593762 -24.60260585 165.90528234 -24.55102539 157.28662109 C-24.55645234 155.76148818 -24.56357821 154.23636051 -24.57226562 152.71124268 C-24.59043401 148.587212 -24.5834585 144.46358352 -24.57074928 140.3395462 C-24.56058784 136.0137884 -24.57002367 131.68806391 -24.57629395 127.36230469 C-24.58356122 120.09938404 -24.57400686 112.83662635 -24.55493164 105.57373047 C-24.53316461 97.18936032 -24.54021664 88.80537932 -24.56223726 80.4210186 C-24.58041754 73.20886859 -24.58293677 65.9968354 -24.57248259 58.78466988 C-24.56626207 54.48307038 -24.56537216 50.18165351 -24.57862854 45.88006592 C-24.59022481 41.83496734 -24.582093 37.7903681 -24.55905151 33.74532318 C-24.55378448 32.26513242 -24.55524372 30.78489927 -24.56410217 29.30472565 C-24.60769996 21.27678229 -24.54021414 15.18362523 -20.03344727 8.38818359 C-14.21778928 2.57252561 -8.1981151 0.01641347 0 0 Z " fill="#FDFDFD" transform="translate(315.033447265625,185.61181640625)"/>
<path d="M0 0 C0.6643808 -0.00525696 1.3287616 -0.01051392 2.01327515 -0.01593018 C4.18674961 -0.02902273 6.35947843 -0.02043221 8.53295898 -0.01025391 C10.05557901 -0.01227751 11.57819809 -0.01519133 13.10081482 -0.01895142 C16.28231083 -0.02335998 19.46355314 -0.01699048 22.64501953 -0.00292969 C26.71255171 0.01417619 30.77949054 0.00430322 34.84700108 -0.01364708 C37.98781263 -0.02451237 41.12848459 -0.0210263 44.26930046 -0.0132637 C45.76873788 -0.01127003 47.26818819 -0.01369158 48.76761055 -0.02070236 C50.86624639 -0.02836417 52.96393435 -0.01664895 55.0625 0 C56.25384048 0.00238678 57.44518097 0.00477356 58.67262268 0.00723267 C71.54869288 1.49638113 82.70633287 16.94160504 91.4284668 25.66479492 C93.48524925 27.71935995 95.5499508 29.76574981 97.61499023 31.81201172 C98.93058202 33.12467423 100.24570375 34.43780806 101.56030273 35.75146484 C102.174823 36.35879959 102.78934326 36.96613434 103.42248535 37.59187317 C103.99067993 38.16314438 104.55887451 38.73441559 105.14428711 39.32299805 C105.64263062 39.81991653 106.14097412 40.31683502 106.65441895 40.82881165 C109.52879653 44.2447924 110.21799439 47.12681242 110.2407074 51.5473938 C110.25068253 52.59021011 110.26065765 53.63302643 110.27093506 54.70744324 C110.27159973 55.846194 110.2722644 56.98494476 110.27294922 58.15820312 C110.28127274 59.36192062 110.28959625 60.56563812 110.298172 61.80583191 C110.31814416 65.10581919 110.32891431 68.40555408 110.33399844 71.70558023 C110.33764605 73.77075066 110.34388841 75.83589698 110.35099983 77.9010582 C110.375495 85.1161785 110.38854496 92.33122698 110.39208984 99.54638672 C110.3957183 106.25385475 110.42556331 112.96086328 110.46749443 119.66819108 C110.50229619 125.43909668 110.51764003 131.20985086 110.51833588 136.98086059 C110.51912579 140.42198386 110.52772961 143.8626396 110.55633354 147.30365372 C110.58328778 151.15010358 110.57840789 154.99529974 110.56591797 158.84179688 C110.58075226 159.96840225 110.59558655 161.09500763 110.61087036 162.25575256 C110.54264626 169.66072368 109.08933816 175.17512504 104.96655273 181.38818359 C102.46655273 183.82568359 102.46655273 183.82568359 99.96655273 185.38818359 C99.29252411 185.90740387 98.61849548 186.42662415 97.92404175 186.96157837 C93.66219482 189.01736727 89.82088495 188.80705995 85.14672852 188.77636719 C84.16237823 188.78162415 83.17802795 188.7868811 82.16384888 188.79229736 C78.91302576 188.80549023 75.66269327 188.79676021 72.41186523 188.78662109 C70.14891465 188.78864235 67.88596471 188.79155422 65.62301636 188.7953186 C60.88020628 188.79974127 56.13756575 188.79331378 51.39477539 188.77929688 C45.32299831 188.76222477 39.25161964 188.77203427 33.17985725 188.79001427 C28.50606298 188.80087021 23.83236267 188.79739707 19.15856552 188.78963089 C16.92031685 188.78763289 14.68205958 188.79007409 12.44382095 188.79706955 C9.31070723 188.80471144 6.17823234 188.79304008 3.04516602 188.77636719 C2.12441284 188.78243988 1.20365967 188.78851257 0.25500488 188.79476929 C-8.13458212 188.71230573 -13.95150783 186.47012303 -20.03344727 180.38818359 C-24.92275332 173.01593762 -24.60260585 165.90528234 -24.55102539 157.28662109 C-24.55645234 155.76148818 -24.56357821 154.23636051 -24.57226562 152.71124268 C-24.59043401 148.587212 -24.5834585 144.46358352 -24.57074928 140.3395462 C-24.56058784 136.0137884 -24.57002367 131.68806391 -24.57629395 127.36230469 C-24.58356122 120.09938404 -24.57400686 112.83662635 -24.55493164 105.57373047 C-24.53316461 97.18936032 -24.54021664 88.80537932 -24.56223726 80.4210186 C-24.58041754 73.20886859 -24.58293677 65.9968354 -24.57248259 58.78466988 C-24.56626207 54.48307038 -24.56537216 50.18165351 -24.57862854 45.88006592 C-24.59022481 41.83496734 -24.582093 37.7903681 -24.55905151 33.74532318 C-24.55378448 32.26513242 -24.55524372 30.78489927 -24.56410217 29.30472565 C-24.60769996 21.27678229 -24.54021414 15.18362523 -20.03344727 8.38818359 C-14.21778928 2.57252561 -8.1981151 0.01641347 0 0 Z M-7.68166828 17.53395462 C-9.61751295 20.18934379 -9.41103219 22.14846983 -9.41439819 25.41661072 C-9.42285767 26.67707718 -9.43131714 27.93754364 -9.44003296 29.23620605 C-9.43419983 30.63574347 -9.42805531 32.03527962 -9.42163086 33.43481445 C-9.42569532 34.90658457 -9.4310365 36.37835164 -9.43756104 37.85011292 C-9.45125667 41.85015214 -9.4459265 45.84995965 -9.43642378 49.850003 C-9.42883735 54.03351775 -9.43587009 58.21701244 -9.44058228 62.40052795 C-9.44604341 69.42761808 -9.43883951 76.45461368 -9.42456055 83.48168945 C-9.40823966 91.60752218 -9.41351696 99.73312904 -9.43003976 107.85895628 C-9.44365205 114.83228964 -9.44557537 121.80555499 -9.43772376 128.77889735 C-9.43304499 132.94515946 -9.4324278 137.11131541 -9.44233322 141.27757072 C-9.45099668 145.19529354 -9.44499253 149.11272514 -9.42765045 153.03041649 C-9.42368199 154.46874762 -9.42482583 155.90710324 -9.43143845 157.34542465 C-9.43962908 159.30786517 -9.4275393 161.27035921 -9.41439819 163.23277283 C-9.41326712 164.33134078 -9.41213604 165.42990873 -9.41097069 166.56176662 C-8.98429228 169.75619384 -8.28722852 171.11530631 -6.03344727 173.38818359 C-2.12425379 174.69124808 1.59786063 174.54390363 5.6730957 174.54931641 C7.00769836 174.55676376 7.00769836 174.55676376 8.3692627 174.56436157 C11.31576304 174.57897945 14.26220957 174.5857843 17.20874023 174.59130859 C19.25513714 174.59706 21.30153403 174.60281773 23.34793091 174.60858154 C27.640241 174.61909022 31.93253237 174.62493388 36.22485352 174.62841797 C41.72514428 174.63390485 47.22518776 174.65793766 52.72540092 174.68638992 C56.95302047 174.70501153 61.18058036 174.71022163 65.40823746 174.71175385 C67.43602985 174.71478157 69.46382116 174.72281412 71.49157333 174.73593903 C74.32831409 174.7529907 77.16444951 174.75112147 80.0012207 174.74462891 C80.83879913 174.75384369 81.67637756 174.76305847 82.53933716 174.77255249 C87.16686228 174.7393693 90.20855719 174.39643591 93.96655273 171.38818359 C95.16340943 168.9944702 95.08976979 167.52997099 95.08680725 164.85775757 C95.08818192 163.90420883 95.08955658 162.9506601 95.0909729 161.96821594 C95.08737762 160.91877304 95.08378235 159.86933014 95.08007812 158.78808594 C95.08022415 157.68564041 95.08037018 156.58319489 95.08052063 155.44734192 C95.07982185 151.78958189 95.07203106 148.13187227 95.06420898 144.47412109 C95.06234468 141.9434919 95.06092084 139.41286235 95.05992126 136.88223267 C95.0564883 130.89344904 95.04860029 124.90468717 95.03857177 118.91591227 C95.02740307 112.0985858 95.02189828 105.28125846 95.01687634 98.46392512 C95.00641748 84.43866786 94.98882275 70.41342672 94.96655273 56.38818359 C94.14453369 56.36836426 93.32251465 56.34854492 92.47558594 56.328125 C88.74309148 56.23273757 85.01114604 56.1231127 81.27905273 56.01318359 C79.98547852 55.98224609 78.6919043 55.95130859 77.35913086 55.91943359 C76.11196289 55.88076172 74.86479492 55.84208984 73.57983398 55.80224609 C72.43297119 55.7708252 71.2861084 55.7394043 70.10449219 55.70703125 C65.3652415 55.22547353 62.805304 54.37080825 59.69213867 50.72363281 C57.7019013 46.876629 57.42846995 44.33417507 57.35717773 40.02099609 C57.34064148 39.34140839 57.32410522 38.66182068 57.30706787 37.9616394 C57.25886561 35.81205971 57.23728146 33.66318578 57.21655273 31.51318359 C57.18836941 30.04700278 57.15843868 28.58085445 57.12670898 27.11474609 C57.05311773 23.5393773 57.00337247 19.96414187 56.96655273 16.38818359 C48.80421797 16.31870284 40.64200657 16.26538241 32.47944927 16.23274708 C28.68931833 16.21708449 24.89938957 16.19583581 21.109375 16.16186523 C17.45244672 16.1292923 13.79571303 16.11133505 10.13865089 16.10355186 C8.74276478 16.09800458 7.34688942 16.0871721 5.95108604 16.07099342 C3.99760683 16.0492493 2.04393222 16.04795845 0.09033203 16.04760742 C-1.57845757 16.03761467 -1.57845757 16.03761467 -3.28096008 16.02742004 C-5.98526946 16.16757327 -5.98526946 16.16757327 -7.68166828 17.53395462 Z " fill="#BED2A8" transform="translate(315.033447265625,185.61181640625)"/>
<path d="M0 0 C1.14533203 -0.02449219 2.29066406 -0.04898437 3.47070312 -0.07421875 C4.57220703 -0.07808594 5.67371094 -0.08195312 6.80859375 -0.0859375 C7.81591553 -0.09415527 8.8232373 -0.10237305 9.86108398 -0.11083984 C13.5210489 0.54739153 14.39921846 1.32251966 16.5625 4.375 C17.17869808 7.89501417 17.11882298 11.38916673 17.09594727 14.95507812 C17.10887062 16.57028603 17.10887062 16.57028603 17.12205505 18.21812439 C17.14477657 21.78107672 17.13796474 25.34324654 17.12890625 28.90625 C17.13413885 31.37960037 17.14041398 33.85294874 17.14768982 36.32629395 C17.15810535 41.51140733 17.1535154 46.69624647 17.13891602 51.88134766 C17.12172176 58.5332862 17.14522554 65.18402281 17.18040562 71.83591461 C17.20234176 76.94368233 17.20094729 82.05124228 17.1926403 87.15904236 C17.19181881 89.61190233 17.19871979 92.06477727 17.21341133 94.51759338 C17.23078748 97.94391317 17.21637077 101.36866582 17.19360352 104.79492188 C17.20529572 105.81218857 17.21698792 106.82945526 17.22903442 107.87754822 C17.1360524 114.73834875 17.1360524 114.73834875 14.19325256 118.00489807 C11.19666167 119.56552944 9.29649824 119.8775912 5.9296875 119.87109375 C4.87652344 119.87173828 3.82335937 119.87238281 2.73828125 119.87304688 C1.10439453 119.84307617 1.10439453 119.84307617 -0.5625 119.8125 C-1.65949219 119.81958984 -2.75648438 119.82667969 -3.88671875 119.83398438 C-11.91533596 119.76995246 -11.91533596 119.76995246 -14.06771278 118.14194584 C-15.83752097 115.85899622 -15.81456324 114.57091427 -15.81845093 111.69981384 C-15.8269104 110.73936661 -15.83536987 109.77891937 -15.84408569 108.78936768 C-15.838013 107.7373114 -15.83194031 106.68525513 -15.82568359 105.60131836 C-15.83094055 104.49218582 -15.83619751 103.38305328 -15.84161377 102.24031067 C-15.85484465 98.56501284 -15.84606505 94.89014617 -15.8359375 91.21484375 C-15.83795719 88.66801368 -15.84086775 86.12118417 -15.84463501 83.57435608 C-15.84906245 78.23367276 -15.84289808 72.89314486 -15.82861328 67.55249023 C-15.81227811 61.37382513 -15.81758099 55.19545686 -15.8340925 49.01679891 C-15.84933222 43.07673662 -15.84773817 37.13676677 -15.8389473 31.1966877 C-15.83694053 28.66682456 -15.83942117 26.13695388 -15.84638596 23.60709953 C-15.85397027 20.07762188 -15.84243853 16.54872155 -15.82568359 13.01928711 C-15.83175629 11.9652066 -15.83782898 10.9111261 -15.84408569 9.82510376 C-15.83139648 8.38866264 -15.83139648 8.38866264 -15.81845093 6.92320251 C-15.81731985 6.08826735 -15.81618877 5.2533322 -15.81502342 4.39309597 C-15.69044069 3.7271243 -15.56585796 3.06115263 -15.4375 2.375 C-10.67664081 -0.79890613 -5.59804275 0.00627935 0 0 Z " fill="#8CB175" transform="translate(258.4375,297.625)"/>
<path d="M0 0 C0.33 0 0.66 0 1 0 C1.33 48.18 1.66 96.36 2 146 C19.16 128.84 36.32 111.68 54 94 C51.97624908 89.95249817 50.43581256 88.7124836 47 86 C47 85.34 47 84.68 47 84 C56.71462771 83.06846036 66.25114691 82.91522736 76 83 C76 92.57 76 102.14 76 112 C68 106 68 106 65 103 C62.15805134 104.28998155 60.12188057 105.63637587 57.94140625 107.86328125 C57.39033203 108.42080078 56.83925781 108.97832031 56.27148438 109.55273438 C55.70751953 110.13345703 55.14355469 110.71417969 54.5625 111.3125 C54.00240234 111.88162109 53.44230469 112.45074219 52.86523438 113.03710938 C51.76095915 114.1594241 50.65822166 115.28325421 49.55712891 116.40869141 C45.84584499 120.20143969 42.14171806 123.68662555 38 127 C34.67093181 130.26316756 31.43082669 133.61057573 28.19155884 136.96234131 C25.67791109 139.55664847 23.14792489 142.1347763 20.6171875 144.71240234 C19.28722218 146.07268305 17.96267211 147.43827913 16.64355469 148.80908203 C14.72700608 150.79853764 12.79160147 152.76785311 10.8515625 154.734375 C10.26903717 155.34786804 9.68651184 155.96136108 9.08633423 156.59344482 C6.11314662 159.56902172 4.42623955 160.88394551 0.26806641 162.01611328 C-4.16481139 161.99425687 -6.20420525 160.05002385 -9.25 157.125 C-10.37803809 156.10580913 -11.50695996 155.08759566 -12.63671875 154.0703125 C-13.19665527 153.55500977 -13.7565918 153.03970703 -14.33349609 152.50878906 C-16.83604641 150.24307548 -19.44075538 148.12687717 -22.0625 146 C-22.91972656 145.29875 -23.77695313 144.5975 -24.66015625 143.875 C-26.74365954 142.20541473 -28.85299958 140.58669777 -31 139 C-34.87033361 140.57661361 -37.4591092 143.20230481 -40.33178711 146.13647461 C-41.11065529 146.91972359 -41.11065529 146.91972359 -41.90525818 147.71879578 C-43.0292972 148.85043078 -44.15102015 149.98436999 -45.27067375 151.12034416 C-47.04449879 152.91974615 -48.82454061 154.71278246 -50.6063385 156.50428772 C-55.03053588 160.95519894 -59.44382717 165.41687455 -63.85748291 169.87823486 C-67.5882671 173.64852217 -71.32314347 177.41466435 -75.06353951 181.17541695 C-76.81416535 182.93897565 -78.55863959 184.7084671 -80.30296326 186.47825623 C-81.38128307 187.56384441 -82.45988654 188.64915093 -83.53881836 189.73413086 C-84.01949768 190.22514282 -84.500177 190.71615479 -84.99542236 191.2220459 C-87.77553334 194.00301749 -90.46364919 196.25563644 -94 198 C-97.1875 197.875 -97.1875 197.875 -100 197 C-102 194 -102 194 -101.99057007 191.70744324 C-100.58818186 187.87441153 -98.01067401 185.4776267 -95.15087891 182.6809082 C-94.54107681 182.06891571 -93.93127472 181.45692322 -93.30299377 180.8263855 C-91.28700442 178.80808668 -89.25710266 176.80443185 -87.2265625 174.80078125 C-85.82190289 173.40104563 -84.41805422 172.00049579 -83.01498413 170.59916687 C-80.07358808 167.66541025 -77.12585352 164.7382358 -74.17285156 161.81616211 C-70.38568582 158.06858914 -66.60938599 154.31030874 -62.83712196 150.54774189 C-59.24128938 146.96187959 -55.64051696 143.38099588 -52.0390625 139.80078125 C-51.35098133 139.11609583 -50.66290016 138.43141041 -49.95396805 137.72597694 C-48.00797229 135.79155023 -46.05855115 133.8606493 -44.10791016 131.9309082 C-43.5311705 131.35685745 -42.95443085 130.7828067 -42.36021423 130.19136047 C-36.37662214 124.28813021 -36.37662214 124.28813021 -32.3125 123.4375 C-28.03853549 124.16326756 -26.35611966 125.9515279 -23.26171875 128.875 C-20.80307151 131.18502435 -18.24324495 133.31040678 -15.625 135.4375 C-14.79226562 136.11683594 -13.95953125 136.79617188 -13.1015625 137.49609375 C-8.74625101 141.01215756 -4.37087387 144.5033009 0 148 C0 99.16 0 50.32 0 0 Z " fill="#8FB27A" transform="translate(199,158)"/>
<path d="M0 0 C1.20140625 -0.01998047 2.4028125 -0.03996094 3.640625 -0.06054688 C4.79046875 -0.05990234 5.9403125 -0.05925781 7.125 -0.05859375 C8.17945313 -0.06044678 9.23390625 -0.0622998 10.3203125 -0.06420898 C13 0.4375 13 0.4375 14.64222717 1.96824646 C16.53468532 5.40988183 16.42686434 8.61912559 16.40405273 12.44726562 C16.41091599 13.25097092 16.41777924 14.05467621 16.42485046 14.88273621 C16.4431362 17.5365877 16.43927892 20.1898491 16.43359375 22.84375 C16.43815435 24.68933301 16.44345956 26.53491433 16.44947815 28.38049316 C16.45841246 32.24738467 16.45598208 36.11406967 16.44604492 39.98095703 C16.4345484 44.93779127 16.45477544 49.89391386 16.48396206 54.8506546 C16.50230125 58.66136201 16.50203628 62.4718981 16.49632454 66.28263855 C16.49617108 68.1102956 16.5022358 69.93796409 16.51461601 71.76557922 C16.52948331 74.3200864 16.51888162 76.87326885 16.50170898 79.42773438 C16.51137695 80.18318039 16.52104492 80.9386264 16.53100586 81.71696472 C16.48199677 85.19595796 16.25823923 87.09636906 14.13075256 89.90675354 C11.42370001 91.85151765 9.81483818 91.93999843 6.5 91.93359375 C5.448125 91.93423828 4.39625 91.93488281 3.3125 91.93554688 C2.219375 91.91556641 1.12625 91.89558594 0 91.875 C-1.093125 91.88208984 -2.18625 91.88917969 -3.3125 91.89648438 C-11.17137495 91.83388304 -11.17137495 91.83388304 -14.13075256 90.41822815 C-16.96365742 87.41637067 -16.55026247 84.25558753 -16.50170898 80.34179688 C-16.50711197 79.51712418 -16.51251495 78.69245148 -16.51808167 77.8427887 C-16.5306012 75.11357871 -16.51405697 72.38541701 -16.49609375 69.65625 C-16.49624866 67.76200302 -16.49773637 65.86775571 -16.50050354 63.97351074 C-16.50188898 60.00221762 -16.48930535 56.03128502 -16.46655273 52.06005859 C-16.43816768 46.96529711 -16.4409035 41.87113487 -16.45364285 36.77632904 C-16.46059227 32.86442939 -16.45281917 28.95266866 -16.44038582 25.04078674 C-16.43586415 23.16207919 -16.43554074 21.28335676 -16.43945122 19.40464783 C-16.44235624 16.78052109 -16.42589088 14.157225 -16.40405273 11.53320312 C-16.40855438 10.75388931 -16.41305603 9.9745755 -16.41769409 9.17164612 C-16.34523688 3.94113388 -16.34523688 3.94113388 -14.64222717 1.45677185 C-10.56782297 -1.07206556 -4.63004734 -0.02732324 0 0 Z " fill="#8DB276" transform="translate(171,325.5625)"/>
<path d="M0 0 C1.051875 -0.00064453 2.10375 -0.00128906 3.1875 -0.00195312 C4.8271875 0.02801758 4.8271875 0.02801758 6.5 0.05859375 C7.593125 0.05150391 8.68625 0.04441406 9.8125 0.03710938 C17.72571817 0.10014359 17.72571817 0.10014359 20.62976074 1.58520508 C23.39922772 4.41486607 23.00785078 6.56765235 23.01757812 10.47436523 C23.0245874 11.18038879 23.03159668 11.88641235 23.03881836 12.61383057 C23.05642948 14.94868255 23.04476454 17.2823231 23.03125 19.6171875 C23.03394435 21.23999769 23.0378263 22.8628063 23.04284668 24.48561096 C23.04874616 27.88778036 23.04016583 31.2895298 23.02148438 34.69165039 C22.99871224 39.05109117 23.01180331 43.409546 23.03577423 47.76895046 C23.05023585 51.120747 23.04562434 54.47231024 23.03526306 57.82411385 C23.03259581 59.43126606 23.0358655 61.03843951 23.04518127 62.64556694 C23.05535142 64.89375671 23.03984133 67.14035629 23.01757812 69.38842773 C23.01280457 71.30678688 23.01280457 71.30678688 23.00793457 73.26390076 C22.41362551 77.04572953 21.53331371 78.23421307 18.5 80.49609375 C15.90625 81.01367188 15.90625 81.01367188 13 81.02734375 C11.948125 81.0325 10.89625 81.03765625 9.8125 81.04296875 C8.719375 81.0275 7.62625 81.01203125 6.5 80.99609375 C4.8603125 81.01929688 4.8603125 81.01929688 3.1875 81.04296875 C2.135625 81.0378125 1.08375 81.03265625 0 81.02734375 C-0.9590625 81.02283203 -1.918125 81.01832031 -2.90625 81.01367188 C-6.3416992 80.3281342 -7.35716135 79.25181138 -9.5 76.49609375 C-10.00793457 73.30859375 -10.00793457 73.30859375 -10.01757812 69.49609375 C-10.0245874 68.79967773 -10.03159668 68.10326172 -10.03881836 67.38574219 C-10.05639196 65.08878443 -10.04477919 62.79306354 -10.03125 60.49609375 C-10.03394513 58.89713302 -10.03782773 57.29817388 -10.04284668 55.69921875 C-10.04874082 52.35010149 -10.04018192 49.00141132 -10.02148438 45.65234375 C-9.99869435 41.36130784 -10.01181796 37.07127264 -10.03577423 32.78027344 C-10.0502348 29.47909009 -10.04562515 26.17814364 -10.03526306 22.87695312 C-10.03259646 21.29492067 -10.03586322 19.71286664 -10.04518127 18.13085938 C-10.05535179 15.91869212 -10.0398419 13.70814075 -10.01757812 11.49609375 C-10.01439575 10.23796875 -10.01121338 8.97984375 -10.00793457 7.68359375 C-9.04911972 1.66663307 -5.75716016 -0.01112355 0 0 Z " fill="#8EB277" transform="translate(208.5,336.50390625)"/>
<path d="M0 0 C1.051875 -0.00515625 2.10375 -0.0103125 3.1875 -0.015625 C4.280625 -0.00015625 5.37375 0.0153125 6.5 0.03125 C8.1396875 0.00804687 8.1396875 0.00804687 9.8125 -0.015625 C10.864375 -0.01046875 11.91625 -0.0053125 13 0 C14.43859375 0.00676758 14.43859375 0.00676758 15.90625 0.01367188 C18.5 0.53125 18.5 0.53125 20.81054688 1.90625 C23.49207944 6.0727006 23.07074467 10.20976472 23.03125 15.0625 C23.0350769 16.09056763 23.03890381 17.11863525 23.04284668 18.17785645 C23.04556674 20.34986348 23.03819906 22.52190323 23.02148438 24.69384766 C23.00007695 28.01929729 23.02128378 31.34258635 23.046875 34.66796875 C23.04423174 36.7786506 23.03910681 38.88933111 23.03125 41 C23.03934692 41.99487427 23.04744385 42.98974854 23.05578613 44.01477051 C22.96344138 50.80963335 22.96344138 50.80963335 20.81274414 54.15844727 C17.98929373 55.83439593 16.24061581 56.03363122 12.96484375 56.02734375 C11.90845703 56.02798828 10.85207031 56.02863281 9.76367188 56.02929688 C8.66603516 56.00931641 7.56839844 55.98933594 6.4375 55.96875 C5.33599609 55.97583984 4.23449219 55.98292969 3.09960938 55.99023438 C-5.00033578 55.92590983 -5.00033578 55.92590983 -7.27514648 54.12915039 C-9.39374499 51.36530203 -9.63492854 49.56706215 -9.67700195 46.14501953 C-9.68983719 45.23712677 -9.70267242 44.32923401 -9.71589661 43.39382935 C-9.72328354 42.41050629 -9.73067047 41.42718323 -9.73828125 40.4140625 C-9.746353 39.40536102 -9.75442474 38.39665955 -9.76274109 37.35739136 C-9.77658592 35.22053754 -9.78730629 33.08366156 -9.79516602 30.94677734 C-9.81239421 27.67633305 -9.85627897 24.40689547 -9.90039062 21.13671875 C-9.91051601 19.06250745 -9.91903259 16.98828754 -9.92578125 14.9140625 C-9.94328934 13.9347879 -9.96079742 12.95551331 -9.97883606 11.94656372 C-9.957381 5.24217123 -9.957381 5.24217123 -7.81713867 1.91552734 C-5.00634229 0.2363349 -3.26640525 0.01536615 0 0 Z " fill="#8EB377" transform="translate(120.5,361.46875)"/>
<path d="M0 0 C0.9734436 -0.0076664 0.9734436 -0.0076664 1.96655273 -0.01548767 C4.11654832 -0.02941294 6.26622438 -0.02842472 8.41625977 -0.02612305 C9.90837219 -0.03000851 11.40048351 -0.03434287 12.89259338 -0.03910828 C16.02234479 -0.04657688 19.15198342 -0.04627472 22.28173828 -0.04101562 C26.29475501 -0.03522146 30.30731012 -0.05214715 34.32025051 -0.0753603 C37.40260015 -0.09008482 40.4848383 -0.09097109 43.56721687 -0.08785057 C45.04681373 -0.08836448 46.52641671 -0.09361526 48.00597954 -0.10366249 C50.07460476 -0.11598477 52.14232699 -0.10926165 54.2109375 -0.09765625 C55.38849106 -0.09828568 56.56604462 -0.0989151 57.77928162 -0.0995636 C60.67016602 0.2746582 60.67016602 0.2746582 62.54652405 1.61433411 C64.33495358 4.25696649 64.11299983 6.1748215 63.67016602 9.2746582 C61.52075204 12.11000505 60.33313841 13.15761281 56.79310608 13.78259277 C55.68011642 13.78577515 54.56712677 13.78895752 53.42041016 13.79223633 C52.15552261 13.80484497 50.89063507 13.81745361 49.5874176 13.83044434 C48.21004682 13.82328372 46.83268113 13.81507954 45.45532227 13.8059082 C44.03811883 13.8086041 42.62091721 13.81248734 41.20372009 13.81750488 C38.23540616 13.8233974 35.26757423 13.81484704 32.29931641 13.79614258 C28.50157493 13.773373 24.70496545 13.78646349 20.90726566 13.81043243 C17.98090654 13.82491546 15.05481391 13.82027282 12.12844658 13.80992126 C10.72866112 13.80725977 9.32885117 13.81050346 7.92909431 13.81983948 C5.9691733 13.83004189 4.00916709 13.81172393 2.04931641 13.79223633 C0.93553116 13.78905396 -0.17825409 13.78587158 -1.32579041 13.78259277 C-5.03890109 13.15476657 -6.74259009 11.98133072 -9.32983398 9.2746582 C-9.19788578 1.62166243 -7.34315085 0.02875083 0 0 Z " fill="#90B479" transform="translate(332.329833984375,292.725341796875)"/>
<path d="M0 0 C1.28813599 -0.01260864 2.57627197 -0.02521729 3.90344238 -0.03820801 C5.30607653 -0.03104819 6.70870569 -0.0228442 8.11132812 -0.01367188 C9.55334739 -0.01636743 10.99536488 -0.02025038 12.43737793 -0.02526855 C15.45696345 -0.03116076 18.47607511 -0.02261036 21.49560547 -0.00390625 C25.36294015 0.01888407 29.22916448 0.00575937 33.09645844 -0.01819611 C36.07338807 -0.03266213 39.05005518 -0.02804461 42.0269928 -0.01768494 C43.45272453 -0.01501983 44.87848022 -0.01827989 46.30418396 -0.02760315 C48.29783665 -0.03777985 50.29157309 -0.01951376 52.28515625 0 C53.418927 0.00318237 54.55269775 0.00636475 55.7208252 0.00964355 C59.29267066 0.630594 60.48042247 1.65364889 62.64257812 4.51757812 C63.08578191 7.62000461 63.31158207 9.53695883 61.51121521 12.17591858 C58.77993752 14.13694398 56.64705434 13.90598901 53.30688477 13.92163086 C51.34453636 13.94065712 51.34453636 13.94065712 49.34254456 13.96006775 C47.91260623 13.95801624 46.48266898 13.95502816 45.05273438 13.95117188 C43.58686582 13.9557326 42.1209994 13.96103785 40.65513611 13.96705627 C37.58258378 13.97599298 34.51029127 13.97355837 31.43774414 13.96362305 C27.50204472 13.95213626 23.56724289 13.97233632 19.63166142 14.00154018 C16.6041444 14.01989609 13.57684268 14.01961097 10.54928398 14.01390266 C9.09842101 14.01374935 7.64754353 14.01980204 6.19673347 14.03219414 C4.1670944 14.04708661 2.1373078 14.03380609 0.10766602 14.01928711 C-1.04688583 14.01912094 -2.20143768 14.01895477 -3.39097595 14.01878357 C-6.98819172 13.41100437 -8.16511988 12.3804463 -10.35742188 9.51757812 C-10.85742188 7.01757812 -10.85742188 7.01757812 -10.35742188 4.51757812 C-7.23477797 0.45849098 -5.02138686 0.0140945 0 0 Z " fill="#93B57D" transform="translate(333.357421875,265.482421875)"/>
<path d="M0 0 C0.95116196 -0.0127597 1.90232391 -0.02551941 2.88230896 -0.03866577 C4.42762047 -0.04200424 4.42762047 -0.04200424 6.00415039 -0.04541016 C7.58734825 -0.05539536 7.58734825 -0.05539536 9.20252991 -0.06558228 C11.43773654 -0.07572058 13.67297352 -0.08039893 15.90820312 -0.08007812 C19.3345712 -0.08445066 22.7596511 -0.1207573 26.18579102 -0.15869141 C28.35440639 -0.16455932 30.5230279 -0.16852888 32.69165039 -0.17041016 C33.71983383 -0.18478119 34.74801727 -0.19915222 35.80735779 -0.21395874 C36.76167191 -0.20780548 37.71598602 -0.20165222 38.69921875 -0.1953125 C39.53923935 -0.19816254 40.37925995 -0.20101257 41.24473572 -0.20394897 C43.41430664 0.29052734 43.41430664 0.29052734 45.21681213 2.12948608 C46.41430664 4.29052734 46.41430664 4.29052734 46.28930664 7.35302734 C45.37713787 10.41530823 44.87707971 11.37534915 42.41430664 13.29052734 C40.3341217 13.68493652 40.3341217 13.68493652 37.91455078 13.71044922 C37.00673355 13.72636108 36.09891632 13.74227295 35.16358948 13.75866699 C34.1854277 13.75886841 33.20726593 13.75906982 32.19946289 13.75927734 C30.6885331 13.77069763 30.6885331 13.77069763 29.14707947 13.78234863 C27.01620971 13.79315691 24.88528695 13.7959998 22.75439453 13.79150391 C19.49234728 13.79053197 16.23265448 13.83213813 12.97094727 13.87646484 C10.90129072 13.88167201 8.83162599 13.88436003 6.76196289 13.88427734 C5.29775658 13.90887024 5.29775658 13.90887024 3.80397034 13.93395996 C-2.93325334 13.8651402 -2.93325334 13.8651402 -6.24023438 10.95263672 C-7.95378386 7.5622278 -7.70118494 5.87603598 -6.58569336 2.29052734 C-4.11792844 -0.17723757 -3.39760584 0.03086416 0 0 Z " fill="#91B47C" transform="translate(330.585693359375,319.70947265625)"/>
<path d="M0 0 C0.76171509 -0.00524185 1.52343018 -0.0104837 2.30822754 -0.0158844 C3.91527083 -0.02229471 5.52236109 -0.02098039 7.12939453 -0.01245117 C9.58581102 -0.00393378 12.03990647 -0.03272389 14.49609375 -0.06445312 C16.05989514 -0.06606515 17.62370063 -0.06548759 19.1875 -0.0625 C20.28608337 -0.07935097 20.28608337 -0.07935097 21.40686035 -0.09654236 C24.83910725 -0.0497102 26.78072438 0.20783533 29.59570312 2.23803711 C31.09375 4.43359375 31.09375 4.43359375 30.96875 8.05859375 C30.09375 11.43359375 30.09375 11.43359375 28.09375 13.43359375 C25.26026598 13.65803933 22.52738551 13.76175291 19.69140625 13.76953125 C18.85790146 13.77618805 18.02439667 13.78284485 17.16563416 13.78970337 C15.40121674 13.79983688 13.63676094 13.80452017 11.87231445 13.80419922 C9.1700944 13.80857135 6.46950884 13.84487857 3.76757812 13.8828125 C2.0546931 13.88868071 0.3418003 13.89265007 -1.37109375 13.89453125 C-2.1805394 13.90890228 -2.98998505 13.92327332 -3.82395935 13.93807983 C-9.39728976 13.89260331 -9.39728976 13.89260331 -11.94360352 11.59619141 C-13.33275079 8.47545427 -12.93303089 6.65084054 -11.90625 3.43359375 C-8.47949764 -0.19476373 -4.69726654 -0.01882808 0 0 Z " fill="#94B67E" transform="translate(335.90625,239.56640625)"/>
<path d="M0 0 C1.18580658 0.00444122 2.37161316 0.00888245 3.59335327 0.01345825 C4.24713455 0.0131662 4.90091583 0.01287415 5.57450867 0.01257324 C7.73896483 0.01396839 9.90307822 0.02953783 12.06747437 0.04519653 C13.56677055 0.04892602 15.06606916 0.05177329 16.56536865 0.05377197 C20.5142793 0.06141355 24.46304316 0.08106644 28.41189575 0.10317993 C32.44029759 0.12362713 36.46872311 0.13277127 40.49716187 0.14285278 C48.40347928 0.16431192 56.30967732 0.19845409 64.21591187 0.24050903 C64.21591187 0.57050903 64.21591187 0.90050903 64.21591187 1.24050903 C63.41855621 1.2508165 62.62120056 1.26112396 61.79968262 1.27174377 C54.29499666 1.36961471 46.79039513 1.47211417 39.2858448 1.57984829 C35.42743941 1.63507469 31.56902643 1.68849423 27.71054077 1.73782349 C23.98873065 1.78547124 20.26701378 1.83781417 16.54531479 1.89344978 C15.12353708 1.91387148 13.7017338 1.93258488 12.27991104 1.94958305 C10.29253555 1.97363084 8.30524282 2.00424901 6.31796265 2.03518677 C4.61919479 2.05850319 4.61919479 2.05850319 2.8861084 2.08229065 C0.24263394 2.06317905 0.24263394 2.06317905 -1.78408813 3.24050903 C-2.51102717 5.21939864 -3.18225065 7.22005461 -3.78408813 9.24050903 C-4.44408813 9.24050903 -5.10408813 9.24050903 -5.78408813 9.24050903 C-4.8034713 0.41495749 -4.8034713 0.41495749 0 0 Z " fill="#9BB389" transform="translate(328.7840881347656,292.7594909667969)"/>
<path d="M0 0 C0.66 0.33 1.32 0.66 2 1 C2 9.91 2 18.82 2 28 C0.35 26.35 -1.3 24.7 -3 23 C-2.34 23 -1.68 23 -1 23 C-0.67 15.41 -0.34 7.82 0 0 Z " fill="#89A877" transform="translate(273,242)"/>
<path d="M0 0 C0.66 0.33 1.32 0.66 2 1 C0.515 4.465 0.515 4.465 -1 8 C-1.66 8 -2.32 8 -3 8 C-2.25 2.25 -2.25 2.25 0 0 Z " fill="#9DB78B" transform="translate(326,320)"/>
</svg>
